<svg xmlns="http://www.w3.org/2000/svg" width="254.001" height="365.258" viewBox="0 0 254.001 365.258"><defs><style>.a{fill:#ed683f;}</style></defs><g transform="translate(-0.129)"><path class="a" d="M216.926,123.24a5.06,5.06,0,0,1-.676-.4c-.86.968-1.691,1.927-2.463,2.888C215.728,125.423,215.71,123.974,216.926,123.24Z" transform="translate(-35.243 -20.263)"/><path class="a" d="M212.912,128.736a2.521,2.521,0,0,0-.361-1.013c-.211.273-.436.549-.64.821C212.241,128.607,212.527,128.657,212.912,128.736Z" transform="translate(-34.934 -21.068)"/><path class="a" d="M231.461,159.851c-.457-1.147.939-3.385-.74-3.835C230.926,157.3,228.743,158.983,231.461,159.851Z" transform="translate(-37.932 -25.735)"/><path class="a" d="M64.852,213.829c.005-.846,2.02-.546,1.48-1.7-.944-.033-1.018-.547-2.214-.439C64.517,212.318,63.247,213.9,64.852,213.829Z" transform="translate(-10.538 -34.916)"/><path class="a" d="M240.946,116.53h4.439c-.073-.321.4-.607.958-.853.341-2.776.738-5.3,1.147-7.521-.6-.22-1.053-.344-1.36.276-.874-1.142.23-.952,1.451-.784a90.057,90.057,0,0,1,2.377-9.96A70.471,70.471,0,0,0,220.222,115.6a1.547,1.547,0,0,0,.725,1.355C227.017,117.087,235.2,121.082,240.946,116.53Zm.063-14.1c1.258-.086,1.91.728,2.214,0,1.552.374-.236,2.388-2.214,2.132C241.524,103.258,241.524,103.75,241.01,102.433Z" transform="translate(-36.305 -16.114)"/><path class="a" d="M199.462,134.183c-.005-.251-.005-.509-.01-.759-.182.029-.341.072-.529.1A1.745,1.745,0,0,0,199.462,134.183Z" transform="translate(-32.791 -22.009)"/><path class="a" d="M87.481,79.954a3.973,3.973,0,0,0,1.635.409c-.248.564-1.315.575-2.127.3-5.653,8.194-11.75,16.645-17.742,25.648,2.36-.138,4.591-.274,6.542-.35.383,2.078-4.486,1.393-5.923,1.285,2.688,1.495-.6,2.044-3.06,2.779q-1.928,2.967-3.821,6.018c2.488-.246,5.5-.508,6.141,1.433-2.038-.466-4.929-.347-6.667-.591-3.632,5.912-7.127,12.1-10.361,18.61a1.9,1.9,0,0,0,.737.749c-.231-.514,2.14-1.457,2.22-.428-1.24.554-2.934.848-3.879,1.571-.1.2-.18.4-.274.6,3.945.174,2.262,2.691.454,3.379.131.375-.288.407-.745.428-.665.981-1.281,1.03-1.734.624a121.546,121.546,0,0,0-5.158,14.72c.582.145,1.151.3,1.77.423v1.7c-1.1,1.21-1.061,3.085-2.22,4.274a2,2,0,0,1-1.342.672,127.376,127.376,0,0,0-2.7,19.77,1.314,1.314,0,0,0,.28.049,1.54,1.54,0,0,1-.3.229c-.127,2.218-.21,4.415-.227,6.577A2.341,2.341,0,0,0,40.243,190c2.87.439,3.054-.215,5.184.428.708,1.972-1.978,1.992-2.959,2.989-.84-.074-.409-.428,0-.428.661-1.371-2.413-.589-2.964-1.274a.988.988,0,0,0-.536.235c0,4,.185,7.885.5,11.654a16.543,16.543,0,0,1,4.483.054c-.053,1.735,2.418,2.025,1.48,4.264h1.48c-.62,1.007-3.242-.364-4.439-.429a1.746,1.746,0,0,0,.745-1.7c-.35-.706-2.456-1.462-3.658-1.118a156.281,156.281,0,0,0,5.779,30.109c5.541.029,3.871.3.134.466a143.955,143.955,0,0,0,7.358,19.584h.812c1.4.1,1.632-.482,2.959-.428-.037.546-.95.589-.74,1.285-1.638.269-1.916-.236-2.809-.392.678,1.422,1.1,2.213,1.1,2.213-9.021-5.082-16.014-12.429-21.459-20.647a2.754,2.754,0,0,0-.525.047,4.608,4.608,0,0,0,.362-.286q-.516-.785-1.015-1.579c-.757-.2-1.494-.475-1.572-1.111.356.1.7.165,1.04.241a100.712,100.712,0,0,1-7.427-14.965c-1.072-.5-1.915-.225-2.5-.636-.122-.747.737-.927,1.9-.934-.749-1.952-1.446-3.9-2.078-5.82-1.786-.43-3.146-1.044-4.321-.905-.43-1.693,3.043.075,3.7.428a1.257,1.257,0,0,0,.377-.277,149.823,149.823,0,0,1-4.71-18.924,22.287,22.287,0,0,1-3.81,1.279c1.795-1.157-1.322-2.078-1.49-3.417-.241.9-1.51,1.244-2.88,1.463-7.915,23.71-11.693,54.011-1.11,85.475A143.64,143.64,0,0,0,18.648,303.38a13.158,13.158,0,0,1,3.881.509,6.63,6.63,0,0,1-3.267.509c.492.829,1,1.628,1.5,2.439,1.474-.256,3.151-.362,3.927.052-1.268.8-2.17.666-3.569.529,13.738,21.947,31.07,36.843,43.093,43.356,14.906,8.074,47.3,13.9,62.574-5.884a7.653,7.653,0,0,1-1.383-.884c.189-.6,1.622-.482,2.214-.858v.485a35.643,35.643,0,0,0,4.425-8.4c6.159-16.985-6.418-33.382-20.642-55.122-1.859.6-3.808,1.154-3.709,2.883-1.269.074-1.92-.739-2.224,0-.906-1.273,2.26-2.848,5.667-3.289-.211-.323-.424-.658-.636-.983-1.05.017-2.608-.1-1.328-.431.356-.027.629-.1.954-.148l-.17-.262c-.293,0-.53-.007-.847,0-1.1.364-1.071,1.371-1.48,2.132-1.133,0-2.434-1.167,0-.846-1.847-.75-1.081-.706,0-1.7-2.928,1.649-6.175-.889-8.148.846-1.92.118-5.231-2.57-5.923-.428-1.469,0-.944-1.157-2.959-.857a91.68,91.68,0,0,1,18.588-.334C100.8,263.654,92.181,248.677,86.683,230.6a4.456,4.456,0,0,1-3.424-.512,9.51,9.51,0,0,1,3.1-.511,132.735,132.735,0,0,1-4.839-24.7c-.079-.809-.114-1.588-.176-2.387a11.987,11.987,0,0,1-3.342.747c1.113.632.073,2.206-2.22,2.142,1.39-.825-.435-.782,0-2.142a3.23,3.23,0,0,0,2.959-1.274,11.983,11.983,0,0,1-2.22-3.417c-.315-1.178,2.76-.4,2.959-1.285.635-.075.7.182.745.428-.136.364.289.407.735.439-1.511.4-2.613,1.039-2.959,2.121.225.327,2.265.7,3.225.659a107.749,107.749,0,0,1,1.257-25.411c-.788.127-1.076.541-.777,1.282-2.025-.91.74-1.95-.745-2.978a2.826,2.826,0,0,1,1.739.461,98.357,98.357,0,0,1,2.721-11.125l-.012-.006c.006-.026.027-.043.035-.066,10.747-34.629,37.055-50.749,37.055-50.749S113.055,125.839,111,146.444a3.9,3.9,0,0,1,.335,1.329,2.446,2.446,0,0,1-.491.185,78.145,78.145,0,0,0,.706,18.532,2.991,2.991,0,0,1,2.744.05c-.085.861-1.535.935-2.467,1.309a80.823,80.823,0,0,0,3.261,12.643c.3.873.706,1.708,1.042,2.569,1.142-.23,1.968-.641,1.129-2.016,2.472-.429,2.429.59,2.22,1.7-1.773-.918-1.653.969-2.751,1.784,9.863,23.815,31.43,43.2,49.325,61.571.828-.481,1.62-.984,2.367-1.515.255.788-.539,1.487-1.739,2.157,9.167,9.448,17.3,18.651,22.243,28.073.852,1.624,1.582,3.221,2.26,4.8.046-.007.079-.019.127-.025-.006.418.592.5.74.846-.15.064-.31.068-.463.123,10.716,26.155-1.25,45.834-1.25,45.834-6.021-22.693-17.532-37.492-28.586-46.965-1.393.058-2.536.139-3.028.162.756.418,1.5.836,2.225,1.274-1,.139-1.416.611-2.969.429.315-1.029-1.343-.933-.735-2.132-3.242-.522-7.462-.093-11.281-.13,6.255,9.771,12.717,23.429,14.348,39.316,1.442-1.111,7.53.435,8.781-.793,1.133,1.773-4.9,1.086-8.776.853.139,1.357.282,2.711.347,4.1a44.94,44.94,0,0,1-3.768,20.7c1.553.089,3.106.544,3.309,1.222-1.451-.112-2.6-.291-3.732-.331a47.356,47.356,0,0,1-20.54,21.154c33.561-4.24,92.56-19.784,111.107-74.9.783-2.327,1.409-4.561,2.054-6.806a23.017,23.017,0,0,0-7.43-.126c-1.711.129-.818-1.232-2.225-1.285,3.215-.069,6.63-.058,10.079.008,13.431-48.448-4.6-78.611-26.854-115.261A95.043,95.043,0,0,1,209.7,127.046a1.646,1.646,0,0,1-1.3.235V124.71a1.328,1.328,0,0,1,1.112.367c-.086-1-.162-2-.22-2.98-.057.016-.085.038-.147.053H208.4v-2.978a6.46,6.46,0,0,1,.769.422c-.028-.737-.043-1.46-.057-2.184a6.124,6.124,0,0,1-.712,1.334V114.47a1.16,1.16,0,0,1,.688.2q.006-1.977.072-3.875c-2.378-.925-4.614-.1-6-1.845,1.327-.053,1.558.514,2.964.429-1.374-.825-1.359-.342-.745-1.714-1.779-.172-1.606.782-3.7.428-1.857.632-1,2.849-4.439,2.56-6.747-2.571-9.066,2.346-6.663,4.692-.125.932,2.624.192,3.7.428-.823.61-.792,1.039.74,1.274-.225.579-1.852.354-2.959.428.725.59,2.5.557,2.959,1.286.22,1.135-2.87-1.136-2.22.857,4.214-.4-.383,1.992,2.964,2.978-2.172,1.307-.514,4.82-4.443,5.121.96-1.061-1.653-2.068,0-2.132-2.859-1.821-12.021-1.136-14.077-2.131-2.151.374-.829.643-.734,1.7-4.636.4-4.6-1.846-9.11-.947-.594,1.478-.9,2.4-.9,2.4.224-4.6.255-9.005.2-13.307-3.02-1.185-4.457-3.044-7.963-1.8.924-1.318-.136-2.292-1.48-2.989.986-.279,4.192,1.125,5.923.858,1.071-.632,2.329-1.154,3.379-1.8-.992-23.243-5.984-41.9-12.661-56.738a7.321,7.321,0,0,1-1.825.089c-.146-.747.4-1.1,1.315-1.229-.326-.7-.651-1.407-.984-2.094a4.426,4.426,0,0,1-2.556.335c2.2-1.232-1.847-.74-1.48-2.132h2.969c-.2.669.029,1.1.781,1.23a115.1,115.1,0,0,0-22.1-31.12c-.777.3-1.487.644-.9,1.729a14.724,14.724,0,0,0,2.969,1.285c-.687.739.021,2.281-2.224,2.132-.131-.353.288-.4.745-.428-.42-.525-2.865.321-2.225-1.7-1.306.611-1.689.386-1.48-.857-.913.482-1.521.375-1.48-.428-.871.064-.63.782-.745,1.285-1.406-.846-3.495-.214-5.183,0,2.021-1.587,6.656-3.021,9.938-3.592C118.163,4.34,108.729,0,108.729,0,118.327,30.691,105.25,54.119,87.481,79.954ZM8.464,215.58c-.572.1-1.464.011-1.474.429-1.007-.139-1.422-.611-2.97-.429v-.846c2.277-.118,3.327-.933,5.184-1.285.042.268.115.5.745.418C9.561,214.509,8.847,214.959,8.464,215.58Zm13.269,34.579a3.053,3.053,0,0,1,2.959,2.132c-2.718-1.221-2.493,1.029-.74,1.7-1.863.835-2.23-2.625-5.184-.418C19.844,252.484,21.366,251.659,21.733,250.159Zm-5.865-16.228h5.184C20.473,235.162,16.024,235.826,15.867,233.931Zm2.9,41.4a31.361,31.361,0,0,1,9.627-.439C25.253,275.75,22.042,275.428,18.769,275.332Zm8.95,28.976c.078-1.082,2.482-.836,4.444-.846C31.712,305.208,30.127,304.308,27.719,304.308Zm25.116-28.976c2.675-.321,2.675.728,0,.418H42.468C44.32,274.454,49.75,275.29,52.835,275.332Zm-19.255-.868a35.151,35.151,0,0,0,8.143.428C40.548,276.21,34.167,276,33.58,274.465Zm5.986,29.844c.125.932-2.624.2-3.7.439-1.228-.472,3.83-.9,3.7-2.143.635-.074.7.172.739.429-.136.374.294.407.745.428C41.744,304.254,36.812,303.73,39.567,304.308Zm-3.7,1.714c.524-1.543,5.394-.589,8.143-.846C43.486,306.717,38.616,305.755,35.867,306.022Zm8.888-21.328h-.745c-4.417.1-5.519-.546-8.143.428-.22-1.124,2.865-.342,2.22-1.7,1.17.215,3.971,1.638,5.183.418h2.22C45.354,284.18,44.756,284.266,44.756,284.694Zm2.214,17.493c1.1.214,1.868.621,2.959.846-.62.632-2.372.61-3.7.857A1.707,1.707,0,0,0,46.969,302.187Zm2.959,19.2c-1.6.074-.331-1.521-.735-2.143,2.256.033,3.773-.374,4.444-1.274v-.01a1.763,1.763,0,0,0,1.48,1.714C53.695,320.119,51.156,319.894,49.929,321.384Zm73.988-4.682c1.491.183,5.5,1.06,6.674,0h.735c1.3,1.479-6.1,1.06-6.664,1.7C123.571,318.33,123.985,317.377,123.917,316.7Zm-25.851,19.6h-1.48c-1.411-.171-1.338-1.21-3.7-.846,2.109-1.639,5.551.975,6.663,0h1.48c.163.331.619.493,1.48.428C102.416,336.829,99.368,336.058,98.066,336.305Zm-2.282-18.318c-2.67-1.564,4.056-1.339,6.664-1.285-.651,1.2-2.975,1.415-5.184,1.7C99.289,317.719,96.183,316.98,95.784,317.987Zm26.654-.857c-1.112.632-3.247.686-5.179.857C116.666,316.359,120.758,317.44,122.438,317.131Zm-13.327.857h-.74c-.671-.943-4.234.664-4.444-1.285C105.428,317.43,113.465,316.263,109.111,317.987Zm.807-15.382c-1.233.718-4.355.342-6.664.429a1.568,1.568,0,0,1-.745,1.274v1.714c-1.747-.129-1.38-1.478-3.7-1.274v-.858h3.7c.377-2.067-6.643.129-7.409-1.285C100.485,302.583,106.938,302.177,109.919,302.6ZM92.888,279.574h2.959c.572.1,1.459.011,1.48.428-1.825-.064-3.567-.064-4.438.429H90.663C90.674,279.713,92.72,280.184,92.888,279.574Zm2.959-4.693c.934-.182,1.511-.556,1.48-1.274h.74c.321.8,2.114.772,1.485,2.132a7.768,7.768,0,0,1-3.7-.439Q95.847,275.09,95.847,274.881ZM77.268,160.564c1.307.107,1.684.739,1.48,1.714-2.361-.257-2.282.792-3.7,0C75.27,161.41,77.049,161.432,77.268,160.564Zm-4.438,11.1c2.209-.032,3.751,1.253,2.219,2.132C72.448,173.6,71.912,172.893,72.83,171.661Zm-7.414-5.537a1.611,1.611,0,0,1-.735-1.286,6.552,6.552,0,0,1,2.959-.428C67.851,165.523,67.379,166.241,65.416,166.124Zm-3.693-31.579c2.319-.2,1.952,1.157,3.693,1.274.125.932-2.624.2-3.693.428Zm1.48,35.414a7.815,7.815,0,0,0,3.7.417c-.839,1.092-3.284,1.242-5.929,1.285C61.2,170.793,62.982,170.826,63.2,169.958ZM66.161,181.9c-.514.676-2.434-1.414-3.693-1.7.189-1.5,2.755,1.061,2.949-.439C67.447,180.156,64.115,181.259,66.161,181.9ZM48.4,152.894c1.616-.075,1.584-1.082,1.475-2.132a4.281,4.281,0,0,1,.425.086,5.008,5.008,0,0,0-1.841-1.393v-1.7c1.4-.1,1.632.482,2.964.428a5.4,5.4,0,0,0,2.22.428c-.908,1.264.761,2.7-1.485,3.835h-.01a5.881,5.881,0,0,0-.787,2.153c.919,1.349,2.151.075,3.7,1.274-.174,1.9-1.622,3.053-4.444,3.417-1.579-1.607-1.616-2.882,0-4.692.053-1.446-3.8-.653-3.7-2.132C47.772,152.391,48.229,152.552,48.4,152.894Zm4.438,13.23c-1.328.043-1.563-.525-2.964-.429-.635-1.36,1.17-1.318,1.485-2.142C54.031,163.145,52.384,165.234,52.835,166.124Zm-2.964-5.131c2.314-.182,2.367.922,2.22,2.132C49.781,163.317,49.729,162.213,49.87,160.992Zm-9.627,23.042c-.094-.771.914-.9.745-1.7,1.972.707.593,1.65,4.439.418C46.571,184.837,41.744,184.773,40.243,184.034Zm2.969,12.79c2.482-.289,2.7.718,2.954,1.714C43.853,198.731,42.867,198.163,43.212,196.823Zm2.954-20.47c2.22-.718,4.964-1.125,4.444-3.417-.21-.889-1.973.62-2.959-.429a6.657,6.657,0,0,0,4.439-5.966c.766.418,1.5.846,2.225,1.275-.178-1.393,2.728-.461,5.923-.418-.65-.761-3.29-.706-1.48-1.7a2.578,2.578,0,0,1,2.22,2.122c-1.951,1.071-3.972.192-6.663,1.285.179,1.886,1.516,3.106,1.48,5.121h-3.7c1.784,1.136,5.844-.022,5.929-1.285,1.542.514-.336,2.625-2.964,2.142,2.271,1.339,1.946,3.192,6.669,3.835-.168,1.778,1.207,2.014,0,3.417-1.259.15-1.4-.332-1.485-.857-1.884.043-1.747,1.6-.74,2.132,3.583-.782,3.756-.022,5.919.857,2.508-.171-1.963-1.66,1.49-1.285h2.219c.068,1.167-1.233.858,0,1.714a3.646,3.646,0,0,0,1.485-1.285c1.846.3-1.38,1.136-.745,2.131-3.091.45-3.263.118-6.663,0,.094-.76-.908-.9-.735-1.7-2.329,2.046-9.606.59-8.887,3.417.131-1.467-2.56-2.443-4.449-3.845-.65-1.371,2.439-.59,2.225-1.7C47.609,180.284,48.512,178.3,46.167,176.353Zm23.7,23.888c-.944-.321-2.036-.568-2.2-1.339a4.04,4.04,0,0,1-1.437.043c.22-1,1.862-1.992-1.48-1.7.01-.568,1.3-.4,1.48-.858h.734a9.65,9.65,0,0,0,2.23,1.7v.428a3.525,3.525,0,0,0-.524.118,8.017,8.017,0,0,0,3.426.332C72.384,199.984,68.717,198.731,69.866,200.241Zm-1.48-4.264H65.416v-1.285c1.857.064,2.33.824,2.969-.429C67.441,193.46,69.682,194.553,68.386,195.978Zm-17.031-1.285v-2.978c-1.333-.053-1.563.525-2.959.428.7-.878,1.511-1.693,2.215-2.56,2.078.364,1.574,2.217,2.97,2.978.86-.632,2.135-1.039,2.214-2.132,1.784.4-.451,3.106,2.964,2.56-.3,1.435-3.521.246-5.178,0C50.348,193.074,54.456,195.013,51.355,194.692Zm-.745-6.4c.514-.675,6.705-1.05,5.184.858C53.391,188.372,53.664,188.7,50.61,188.3ZM45.49,232.645c-1.795-1.211,3.405-.7,5.188-.428C49.834,233.748,45.794,231.435,45.49,232.645Zm5.865-28.986c.5-1.928.393-4.081-2.959-3.417-.577-.954,3.41-1.361.735-2.121,3.925-.846,7.251,2.346,8.887,4.263C54,202.554,54.078,202.587,51.355,203.658Zm7.4-2.56c-1.884.321-1.243-2.913-2.964-1.274-1.249-1.157-.955-4.9-.74-5.56,1.432.182.063,1.961,2.964,1.285-3.369,1.018.84,2.185,2.22,2.989.913-.193,1.526-.546,1.485-1.285-.315-.825-2.12.7-1.485-1.275,2.744-.3,1.275,1.821,2.964,2.143.441.964-5.126,1.542-4.444,0-1.2-.129-1.275.4-2.225.418C57,199.556,59.761,199.234,58.759,201.1Zm5.178,143.337H60.977v-.428c-.22-1.125,1.542-1.1,2.959-1.285Zm3.7,0c-2.969.064-1.957-1.1-1.48-2.132C68.648,341.864,67.316,343.621,67.641,344.435ZM78.008,279.6c-.934-1.511-3.641-.546-5.918-2.131-.142-.375.283-.408.74-.439h1.485c-.147.353-.756.428-.75.857,2.1.075,1.443-1.435,4.443-.857Zm10.368,37.964c-3.263-.4-8.558.386-8.143-2.142C82.9,316.969,87.563,314.827,88.376,317.559ZM86.9,277.025c-7.035-.257-15.991-.707-22.214-.846h-.745c-1.081-1.617,3.316-.086,2.224-1.714C71.8,276.961,80.958,274.507,86.9,277.025ZM75.789,184.891c-2.67-.782-2.177.065-4.443.418.756-.557.724-1.575,1.485-2.132.446.246,3.51,1,3.7,0C78.281,183.294,75.679,184.323,75.789,184.891Zm3.7-6.834c-2.119.053-3.5.535-2.959,2.142H74.314c-.241-1.425,1.637-1.618,2.215-2.571-.23-.568-1.857-.353-2.964-.418a1.937,1.937,0,0,0,.75-2.132c2.015-.311,1.48.846,2.954.846.6-.075.74-.428,1.48-.428-.225-1.682-2.565.482-2.22-1.275a6.583,6.583,0,0,1,2.959-.428C79.992,175.871,78.187,176.632,79.488,178.057Zm0-40.952a1.728,1.728,0,0,0,.745-1.7c2.98-.053,4.229,1.8,5.184-.428,1.679.311,1.622,1.628,3.7,1.7C85.842,138.754,82.1,137.008,79.488,137.1Zm39.256,13.229c-.976-.439-2.734-.429-3.7-.858C115.853,148.384,119.3,148.481,118.743,150.334ZM152.8,283c-1.432,1.339-3.809-4.156,0-3.406A2.991,2.991,0,0,0,152.8,283Zm15.552,55.039c-.3.535-.955.868-2.22.847h-.745c-.032-.546-.944-.59-.735-1.275C166.74,337.258,166.573,338.211,168.351,338.04Zm-5.184,8.527c-1.653-1.125,1.244-1.95,3.7-1.275C168.954,345.977,162.857,345.5,163.167,346.567Zm8.148-2.132c-1.542-.246-4.868.525-5.183-.428.461-1.007,3.374-.569,5.918-1.285A1.748,1.748,0,0,0,171.315,344.435Zm.735-25.173c-2.964-.546,2.2-2.024,0-2.131,1.7-1.746.992,1.36,2.225,1.274C173.975,319.851,171.41,317.27,172.05,319.262Zm25.982-49.5c-2.929-.461-.336-1.607.745-2.132h.745C200.067,268.937,197.485,268.444,198.031,269.762Zm2.9,9.834c1.48,1.671,10.362-.461,8.148,2.549-1.721-1.917-4.428-.59-8.148-.418A1.154,1.154,0,0,1,200.932,279.6Zm11.91-43.534c-2.03.611-.855,1.071,0,2.132-.939.59-3.626.182-3.7,1.274,1.228,1.157,1.228,5.249,0,6.407-.582-2.753-.168-3.535-2.224-5.549v-.858h.745c-.089-2.635.914-4.724.735-9.812-1.616-.494-4.786-.086-5.184-1.275,5.441.108,2.676-3.053,5.184-3.835.168.322.026.836.745.846v10.669C210.98,236.619,212.218,234.809,212.843,236.062Zm-2.964-8.108c1.753-1.039,1.385.643,3.709.428-.876.91-3.164,1.018-2.22,2.978h-.745c-.042-.257-.11-.493-.745-.418C210.046,229.378,210.9,229.3,209.878,227.953Zm2.964,35.831c-1.889-.043-1.469-1.425-1.475-2.56C214.043,260.827,212.4,262.907,212.843,263.784Zm0-6.395c-4.213-1.1.813-3.632.745-5.12C215.859,253.747,211.326,254.926,212.843,257.39Zm-5.179-8.538c5.52.632,1.207,4.263,2.959,8.109C207.066,254.8,208.9,252.173,207.664,248.852Zm2.959,18.349c-1.521-.118-1.48-1.136-2.225-1.7v-.428c1.044-.107.85-.932,1.479-1.285C210.843,264.555,210.246,265.359,210.623,267.2Zm-4.5,33.722c-2.539.482-2.193-3.106.74-2.132C206.447,299.4,207.722,300.987,206.121,300.923Zm1.542-8.559c-.083.525-.22,1.018-1.48.857V292.8c2.382-1.125-2.14-3.717,2.959-3.428C207.549,289.75,207.423,290.961,207.664,292.364Zm1.48-3.835c-2.161-.878-2.182-3.01-2.959-4.691,3.106-.086,5.966-.022,5.184,2.131h-.745C210.156,283.881,208.5,287.276,209.143,288.529Zm1.48,0V286.4c2.529-.311,1.218,1.575,2.964,1.7-2.167.461-2.6,1.917-2.22,3.845C209.343,290.875,210.749,290.307,210.623,288.529Zm7.409,41.381c-3.358-.139.315-2.689-1.48-2.989v-.857C221.851,327.992,217.7,327.285,218.032,329.91Zm2.214-6.824v1.285c-1.322.043-1.731-.428-1.48-1.285-1.091.085-.676,1.028-.734,1.7-.745,0-.881-.342-1.48-.418h-.745c-.871.482-2.624.471-4.439.418.006-.846,2.02-.536,1.475-1.7a6.785,6.785,0,0,1,2.964.418c1.606.075.336-1.5.745-2.121v-.429c2.2-1.167-1.238-2.967.735-4.263,1.385,2.26,1.721-.858,1.479-.858.876,0,2.183,2.292.745,4.692-1.731-.107-.43-1.875,0-2.132-3.064-.064-.777,2.968-1.48,4.264,1.091-.075.671-1.029.734-1.7C220.387,321.019,220.361,322.026,220.245,323.086Zm-.735-9.813v1.7C215.692,315.363,220.224,309.911,219.51,313.273Zm-.745-10.24V302.6c-.23-1.553,2-1.693,3.7-2.131C221.148,301.276,220.467,302.455,218.766,303.033Zm-7.46-20.889c.147-.568,3.075-.782,0-.846,4.066-1.714,13.263.4,17.771,0C225.22,283.7,216.1,281.8,211.305,282.145Zm22.277-18.36v.428c-2.939.676-6.643-1.457-6.674-3.835a2.038,2.038,0,0,0,1.49-.857h1.48c1.6.921,4.523,1.093,5.919,2.131C236.154,262.992,233.8,262.788,233.583,263.784Zm6.663-60.994c.514.461-1.5,3.1-4.449,2.978C234.485,206.347,239.406,203.754,240.246,202.791Zm-4.448,4.263a22.009,22.009,0,0,0-6.664,3.417,1.969,1.969,0,0,0-1.48.846c-.829-.053-1.154.61-1.479,0C229.511,210.246,231.169,205.961,235.8,207.054ZM218.708,204.5c-3.038-.257-1.485-1.178-1.48-2.549C218.588,202.854,219.779,203.187,218.708,204.5Zm-2.156-45.655c.861.064.8.664.735,1.274v.428c.23.846-.115,4.435-.735,2.132Zm.735,18.328a2.756,2.756,0,0,1-1.48-2.549C218.987,174.478,217.811,176.182,217.287,177.178Zm-.735.868c2.319.289.965,1.136.735,2.132h-.735C214.558,179.481,215.45,178.828,216.552,178.046ZM205.44,135.38c2.833-.342.871,2.057,3.7,1.714h1.48c-2.508,1.886-.236,2.8.745,4.692-1.055-.043-2.1-.075-2.225.418-1.679-.45-.283-2.677-.745-3.835C206.856,139.076,203.331,137.7,205.44,135.38Zm4.438,41.8c-1.511-.386-.477-6.127-1.479-8.527C212.386,170.28,209.495,174.393,209.878,177.178Zm-.735,14.943v-4.692C210.146,182.641,210.644,194.178,209.143,192.121Zm-2.959,20.053c2.393-3.417,3.369,4.22.735,1.274v-.428h.745C207.58,212.507,207.444,212.014,206.185,212.174Zm.735-34.557a1.875,1.875,0,0,1-1.48-1.714V174.63c.944-.022,1.028-.547,2.225-.429C206.52,175.71,208.063,176.107,206.92,177.617Zm2.959-14.932c-1.416-.171-.577-1.65-2.959-1.274C206.95,159.985,210.854,160.467,209.878,162.685Zm-4.438-22.613a4.149,4.149,0,0,1,2.225,2.56C205.009,142.889,205.408,141.368,205.44,140.072Zm0,23.47v-1.285c1.364-.407.456,2.443,1.48.857,1.238,1.147-1.05,8.249-2.214,2.989C205.555,165.6,205.534,164.591,205.44,163.542Zm2.224,21.327v.429c-.64.91.152,2.946-.745,4.691-2.162-.386-.215-1.575-1.48-1.7v-.428c1.385-1.575,1.154-5.367-.734-6.406C209.122,180.606,205.33,184.5,207.664,184.869Zm-1.479,37.964c.845-1.339-1.164-1.029-1.479-1.7,2.46.171,4.123-2.292,1.479-2.56v-.429c.86-.064.62-.782.735-1.285h2.959c-2.843,1.285-1.217,2.485-2.214,4.7.751-.279.766-.985,2.214-.847v-3.417c.6.29,2.036.654,2.225,0h.74c1.17-.043.582-1.092,2.225-.857-.179.61-1.223.717-1.48,1.274,4.16-.45,6.164-4.4,9.622-3.845-2.734,1.233-7.734,3.107-6.658,5.131-.949-.022-1.029-.546-2.225-.428-2.487,1.649-.986,3.052-4.449,4.263V222.4c.582-.1.871-.354.745-.846-3.326,2.121-3.757,3.267-8.888,4.263a11.6,11.6,0,0,1,.745,3.417c-3.242-.321.593.846-1.48.846-.083-.8-2.45-.29-2.225-1.274C202.333,226.764,200.329,223.55,206.185,222.833Zm-7.471-56.292c.745,0,.882.342,1.48.429V169.1C195.818,170.569,194.862,167.205,198.714,166.54Zm-7.4-38.391h2.22c.829,2.2,1.48,4.885.74,6.824C189.637,134.8,191.777,130.72,191.31,128.149Zm7.466,98.529c-1.012,3.213-4.543,3.535-8.887,6.395C189.825,230.9,196.814,229.11,198.776,226.678Zm-14.134-12.361c1.846.064.215,1.446,0,1.714.483.428,1.71.439,1.485,1.274-2.293-.1-2.314-1.511-2.964-2.56C184.028,214.82,184.473,214.648,184.642,214.317Zm.063,20.47c.6-.086.74-.439,1.48-.439,1.521.375,1.48-2.174,2.225-.846-3.794,2.924-8.783,5.185-13.327,7.681C176.992,238.3,182.239,237.337,184.7,234.787ZM163.907,103.4c4.014.2-1.653,3.46,2.225,3.406C162.606,107.668,163.424,104.915,163.907,103.4Zm-1.48.428c.651,1.649-3.232.7-2.225,2.56C157.679,105.7,158.891,103.94,162.427,103.833ZM156.5,197.681v-2.132c1.763.268,3.452.568,3.7,1.7C158.115,196.91,158.293,197.852,156.5,197.681Zm2.225-26.866c.246-.76,1.921-2.443-1.48-2.571.876-.631.64-1.907,2.959-1.7C160.345,167.409,162.138,170.237,158.723,170.815Zm3.7,51.182c-1.878-.033-1.747-1.586-.735-2.132,1.186-.118,1.269.407,2.215.428C164.447,221.451,162.438,221.151,162.427,222Zm1.48-8.1a1.842,1.842,0,0,1,1.48,1.7c-1.411-.8-1.333.256-3.693,0C161.037,214.231,163.607,214.713,163.907,213.9Zm-2.215-90.012c-1.039.579-3.662.921-4.449.418C157.679,122.9,160.04,123.693,161.693,123.886Zm-7.408,3.835a7.742,7.742,0,0,1,3.693.428c-1.165.632-2.565,2.2.745,2.132-2.676,1.96-2.613-.921-5.924-.846C153.12,128.76,155.135,129.06,154.285,127.721Zm.734,78.5c1.847.064.22,1.446,0,1.7-1.081-.375-2.34-.632-2.22-1.7C154.757,205.7,154.71,208.275,155.019,206.218ZM98.749,78.66c-.152,1.222-.1,2.336,2.22,2.142-1.039,1.05-2.555.75-4.449.418.105-1.05.115-2.057-.734-2.56a5.308,5.308,0,0,1-2.225.428c-1.359.5-.514,2.26-3.7,1.714a5.049,5.049,0,0,0,.745-4.7c1.406.193,1.857.921,3.7.858,2.445-.247-.934-2.764.74-2.56,2.1.2,2.125,1.628,2.964,2.56-.609.364-2.036.256-2.225.846a13.681,13.681,0,0,0,6.664-.429C102.553,78.575,100.637,78.606,98.749,78.66Zm4.438,36.259c2.44-1.36,6.06-1.189,8.882-.857C109.347,115.3,106.886,114.139,103.187,114.919Zm26.659,70.389c-.929-.107-.745-.846,0-.846-.409-1.65-2.865.546-2.225-1.714-.179-.461-1.469-.278-1.48-.846a4.8,4.8,0,0,1-2.225,3.835c-1.1-.921-.964-2.57-4.438-2.131-1.595-.536,4.407-.268,3.7-1.7.236-1.136-4.145.4-2.959-1.285,4.922.975.514-.76,4.439-1.274-1.973,1.907,1.081,2.025,2.225,2.132,1.018-.428-.32-.707,1.48-1.274,1.731.107.43,1.864,0,2.131.137.342.745.418.735.846.913-.182,1.531-.546,1.49-1.274C132.941,182.877,129.63,184.152,129.846,185.308Zm-2.225-5.109c-1.952.118-1.91-.9-2.214-1.714,1.322.053,1.553-.525,2.959-.428C128.671,179.085,127.012,178.988,127.621,180.2Zm-2.214-43.524c-.808-.1-.5-.846-1.491-.857.436-1.029,2.8-.943,4.449-1.274C128.922,136.151,125.538,135.477,125.407,136.676Zm7.4,0a27.037,27.037,0,0,0-6.663.429C127.181,136.237,132.931,134.373,132.8,136.676Zm-.734,9.384h-.745c.283-.568-4.665-1.7-.735-2.55h.735c.162.332.625.493,1.479.418C132.406,144.549,133.676,146.134,132.07,146.06Zm2.959,57.17c1.081.364,2.351.632,2.225,1.7a5.455,5.455,0,0,1-2.225.439A1.161,1.161,0,0,1,135.029,203.23Zm0-54.181c.42-1.04.635-2.2,2.959-2.121v.418C137.118,147.977,137.348,149.241,135.029,149.049Zm5.918,66.124c-.924-.107-.745-.846,0-.857a6.244,6.244,0,0,0-2.214-.846c.178-.75,1.269-.975,2.959-.858-.2-.975.179-1.6,1.48-1.7-2.434-.943-4.355,1.071-6.663,0,3.305-2.025,3.064-2.517,8.143-2.989.4.621-2.875,1.039-.735,1.285.021.418.9.322,1.48.429.651,1.5-1.9,2.2.74,2.549C144.431,213.2,140.984,213.2,140.947,215.173Zm2.225-8.955c.147-.342.745-.428.745-.846-.666-.761-3.011-.546-2.225-2.142.986.428,1.454,1.157,2.959,1.274C144.49,205.254,145.4,206.646,143.172,206.218Zm4.45,11.515c-1.28.74-4.581.472-5.184-.428.089-2.581,5.4.482,3.7-2.989C151.346,214.22,147.695,216.223,147.622,217.733Zm1.478-47.775c.079.792,2.445.289,2.225,1.274v.428c.294,1.532-.614,1.318-2.225,4.264-2.15-.321-4.26-.675-5.183-1.7-1.862-1.724,2.624-2.882,3.7-4.263Zm-7.408-73.806c.63.074.7-.172.745-.429,2.451.418-.829.846-.745,1.285-2.161-.386-.21-1.575-1.479-1.714C140.527,94.117,142.542,95.274,141.692,96.153Zm0,3.407c.965-.5,4.7-.193,4.444,1.285h-2.964c-.272.728.578.8,1.48.858-.409.889-1.149.9-2.215.428-.645,2.645,3.316,2.635,2.959,5.121-.719-.011-.577-.525-.745-.858-4.927,1.393-3.84-5.956-6.663-8.966C140.633,97.331,141.866,98.049,141.692,99.56Zm0,8.965c1.58.4,1.018,3.1-1.479,2.56C139.856,109.746,142.485,110.121,141.692,108.525Zm2.225,23.46c.294.739-1.1,1.092,0,1.285.315-1.178,2.33-.022,1.48.846-1.406.108-1.637-.482-2.959-.418-2.309,3.931,1.369,4.617,0,9.383-1.474,0-.944,1.157-2.969.847v.428h-.734c-4.454.439-5.415-1.147-7.409-2.132v-.857c-1.989-1.586-1.82-.332-3.7-.847,5.058-2.388,7.3-4.627,7.409-8.109,1.936.61,3.091,2.592,2.225,3.835C142.018,135.422,138.791,132.617,143.917,131.984Zm-8.887-37.117c.64.353.446,1.177,1.48,1.285a.383.383,0,0,1-.734,0c-1.994-.3-1.438.878-2.225,1.274-.656-1.329-2.271-2.1-2.959-3.406C131.9,94.4,132.468,95.21,135.029,94.867Zm-3.7-9.813c1.175,1.9-2.991,3.45,0,5.978h-3.7c.325-2.453,1.574-2.025.745-4.692C129.992,87.315,131.325,86.234,131.325,85.055Zm-1.479-3.417c1.007.139.619,1.071.745,1.714h-2.969C126.97,81.991,129.541,82.474,129.846,81.638Zm-3.705.868c-.315.814-.262,1.832-2.225,1.7C122.584,83.48,124.148,82.527,126.141,82.505Zm-2.225-35.414c-1.857.761-.514.707-1.479,1.714-1.831.557-3.075-1.253-3.693,0-1.1-.364-1.076-1.381-1.485-2.143C120.968,47.231,120.89,46.417,123.917,47.092Zm-5.173,37.963c1.6,1.21,5.53,1.082,8.877,1.285-1.448,2.86-6.191-.439-9.622.846,2.45,2.292,10.284,2.892,11.848,6.834-7.9-2.132-12.42-6.213-20.735-8.109.661-1.468-.436-1.853,2.959-2.132-3.1,1.735,3.064,1.842,5.189,2.989C118.566,86.662,118.943,86.04,118.743,85.055Zm-6.674-5.966c-2.624-.975-3.725-.332-8.143-.428-.179-2.1,7.167.149,8.143-1.285C113.686,76.368,111.7,78.253,112.07,79.088Z" transform="translate(0 0)"/><path class="a" d="M216.99,140.882c2,.118,1.328,1.79,2.959,2.132,1.705-1.018-.624-3.321-3.7-3,1.825-1.939-2.865-3.331-2.959-5.538-.645-1.253-1.112.985-2.969.428,3.588-.985-2.015-1.821-.734-3.417a2.175,2.175,0,0,0-1.38.268c-.237.344-.484.691-.71,1.03-.043.14-.084.281-.136.416-.058,0-.09-.01-.144-.01a74.742,74.742,0,0,0-6.5,12.108c3.687-1.931,18.511,1.632,14.792-3.142h-3.7c-1.091-1.628,3.306-.086,2.215-1.7C215.011,140.389,216.26,142.178,216.99,140.882Zm-8.143-1.285h3.7C213.269,141.321,208.117,141.321,208.847,139.6Z" transform="translate(-33.087 -21.688)"/><path class="a" d="M171.679,330.041c1.827.007,3.584.126,4.606.82,2.755-.429,1.941-.91,5.184-.429.125-.632-.262-1.575.745-1.7,1.246.343,2.447.628,3.627.877-13.337-10.618-25.366-13.616-25.366-13.616A88.255,88.255,0,0,1,171.679,330.041Z" transform="translate(-26.449 -52.123)"/><path class="a" d="M14.628,226.888c1.741.285,1.967-.293,3-.4-.271-1.511-.509-2.946-.712-4.289-.024,0-.043,0-.068,0v-.458c-1-6.743-1.2-11.094-1.2-11.094-1.652,3.607-3.234,7.489-4.718,11.563C12.914,223.921,13.6,224.26,14.628,226.888Z" transform="translate(-1.783 -34.746)"/><path class="a" d="M249.039,128.958a1.215,1.215,0,0,1,.216-.3c.039-.672.08-1.339.128-1.992-2.723-.385-5.632-.2-7.013.588,2.838-.064,5.4.022,6.669.858C248.294,128.112,248.105,128.851,249.039,128.958Z" transform="translate(-39.958 -20.862)"/></g></svg>