<svg xmlns="http://www.w3.org/2000/svg" width="509.555" height="732.409" viewBox="0 0 509.555 732.409"><defs><style>.a{fill:#fff;}</style></defs><g transform="translate(-0.297)"><path class="a" d="M194.083,108.762A8.277,8.277,0,0,1,192.75,108c-1.713,1.9-3.427,3.808-4.95,5.712C191.8,113.14,191.8,110.285,194.083,108.762Z" transform="translate(169.473 97.615)"/><path class="a" d="M188.194,114.394a4.684,4.684,0,0,0-.762-2.094c-.381.571-.952,1.142-1.333,1.713A8.1,8.1,0,0,1,188.194,114.394Z" transform="translate(167.937 101.502)"/><path class="a" d="M204.935,144.815c-.952-2.285,1.9-6.854-1.523-7.615C203.793,139.675,199.414,143.1,204.935,144.815Z" transform="translate(182.419 124.008)"/><path class="a" d="M57.743,190.489c0-1.713,4-1.142,3.046-3.427-1.9,0-2.094-1.142-4.379-.952C57.172,187.443,54.7,190.489,57.743,190.489Z" transform="translate(50.507 168.196)"/><path class="a" d="M235,123.6h8.948c-.19-.571.762-1.142,1.9-1.713.762-5.521,1.523-10.662,2.285-15.04-1.142-.381-2.094-.762-2.665.571-1.713-2.285.381-1.9,2.856-1.523a160.484,160.484,0,0,1,4.76-19.99,140.206,140.206,0,0,0-59.59,35.983c.19,1.142.381,2.094,1.523,2.665C207.017,124.738,223.581,132.735,235,123.6Zm.19-28.177c2.475-.19,3.808,1.523,4.379,0,3.046.762-.381,4.76-4.379,4.188C236.146,96.942,236.146,98.085,235.194,95.419Z" transform="translate(174.625 77.64)"/><path class="a" d="M175.842,118.823V117.3c-.381,0-.762.19-1.142.19A8.28,8.28,0,0,0,175.842,118.823Z" transform="translate(157.633 106.021)"/><path class="a" d="M174.885,160.3a8.969,8.969,0,0,0,3.237.762c-.571,1.142-2.665,1.142-4.188.571-11.423,16.373-23.608,33.317-35.6,51.4,4.76-.19,9.138-.571,13.137-.762.762,4.188-8.948,2.856-11.8,2.665,5.331,3.046-1.142,4.188-6.092,5.521-2.665,4-5.14,8-7.615,11.994,4.95-.571,11.042-.952,12.375,2.856-4-.952-9.9-.762-13.327-1.142-7.235,11.8-14.279,24.179-20.752,37.315a3.9,3.9,0,0,0,1.523,1.523c-.381-.952,4.379-2.856,4.379-.952-2.475,1.142-5.9,1.713-7.806,3.237l-.571,1.142c8,.381,4.569,5.331.952,6.854.19.762-.571.762-1.523.952-1.333,1.9-2.475,2.094-3.427,1.333A236.811,236.811,0,0,0,87.5,315.087a20.22,20.22,0,0,0,3.617.762v3.427c-2.285,2.475-2.094,6.092-4.379,8.567a5.076,5.076,0,0,1-2.665,1.333,246.4,246.4,0,0,0-5.331,39.6.7.7,0,0,1,.571.19c-.19.19-.381.381-.571.381-.19,4.379-.381,8.758-.381,13.137a4.147,4.147,0,0,0,2.475-1.713c5.712.952,6.092-.381,10.471.952,1.333,4-4,4-5.9,5.9-1.713-.19-.762-.952,0-.952,1.333-2.665-4.76-1.142-5.9-2.475a2.041,2.041,0,0,0-1.142.381c0,8,.381,15.8.952,23.417a28.7,28.7,0,0,1,8.948.19c-.19,3.427,4.76,4,3.046,8.567h3.046c-1.333,2.094-6.473-.762-8.948-.952a3.712,3.712,0,0,0,1.523-3.427c-.762-1.333-4.95-2.856-7.425-2.285A314.7,314.7,0,0,0,91.116,470.44c11.042,0,7.806.571.19.952a301.29,301.29,0,0,0,14.66,39.219h1.713c2.856.19,3.237-.952,5.9-.952,0,1.142-1.9,1.142-1.523,2.665-3.237.571-3.808-.381-5.712-.762a45.028,45.028,0,0,0,2.285,4.379C90.545,505.661,76.456,491,65.6,474.629H64.462c.381-.19.381-.381.762-.571-.762-1.142-1.333-2.094-2.094-3.237-1.523-.381-3.046-.952-3.237-2.285.762.19,1.333.381,2.094.571a191.75,191.75,0,0,1-14.85-30.081c-2.094-.952-3.808-.381-4.95-1.333-.19-1.523,1.523-1.9,3.808-1.9-1.523-4-2.856-7.806-4.188-11.613-3.617-.952-6.283-2.094-8.567-1.9-.952-3.427,6.092.19,7.425.952a2.628,2.628,0,0,0,.762-.571,323.886,323.886,0,0,1-9.519-37.887c-2.094,1.142-5.14,1.713-7.615,2.475,3.617-2.285-2.665-4.188-3.046-6.854-.571,1.713-3.046,2.475-5.712,2.856-15.8,47.6-23.417,108.329-2.285,171.346a286.869,286.869,0,0,0,24.179,52.927,31.54,31.54,0,0,1,7.806.952c-.952.762-3.617.952-6.473.952.952,1.713,2.094,3.237,3.046,4.95,3.046-.571,6.283-.762,7.806.19-2.475,1.523-4.379,1.333-7.235,1.142,27.606,43.979,62.256,73.869,86.435,86.815,29.89,16.183,94.812,27.8,125.463-11.8L251.42,689c.381-1.142,3.237-.952,4.379-1.713v.952a82.152,82.152,0,0,0,8.948-16.754c12.375-34.079-12.946-66.825-41.313-110.423-3.808,1.142-7.615,2.285-7.425,5.712-2.475.19-3.808-1.523-4.379,0-1.9-2.475,4.569-5.712,11.423-6.663a11.556,11.556,0,0,0-1.333-1.9c-2.094,0-5.14-.19-2.665-.952a5.633,5.633,0,0,0,1.9-.381c-.19-.19-.19-.381-.381-.571h-1.713c-2.285.762-2.094,2.665-3.046,4.189-2.285,0-4.95-2.285,0-1.714-3.617-1.523-2.094-1.333,0-3.427-5.9,3.237-12.375-1.713-16.373,1.713-3.808.19-10.471-5.14-11.8-.952-2.856,0-1.9-2.285-5.9-1.713,12.756-1.9,25.321-1.333,37.315-.762-16.754-26.083-34.079-56.163-45.121-92.337-1.9.762-5.14,0-6.854-.952,1.333-.762,4-.762,6.283-.952a262.055,262.055,0,0,1-9.71-49.5c-.19-1.713-.19-3.237-.381-4.76-1.9.381-3.808,1.523-6.663,1.523,2.285,1.333.19,4.379-4.379,4.379,2.856-1.713-.952-1.523,0-4.379,3.808.19,4.569-1.333,5.9-2.475-2.475-3.046-3.617-4.76-4.379-6.854-.571-2.285,5.521-.762,5.9-2.665,1.333-.19,1.333.381,1.523.952-.19.762.571.762,1.523.952-3.046.762-5.331,2.094-5.9,4.188.381.571,4.569,1.333,6.473,1.333a221.082,221.082,0,0,1,2.475-51.023c-1.523.19-2.094,1.142-1.523,2.475-4-1.9,1.523-4-1.523-5.9a5.2,5.2,0,0,1,3.427.952,190.434,190.434,0,0,1,5.521-22.275h0v-.19c21.513-69.49,74.25-101.665,74.25-101.665S226.86,251.5,222.862,292.812a10.914,10.914,0,0,1,.762,2.665c-.381.19-.571.19-.952.381A154.578,154.578,0,0,0,224,332.983a5.72,5.72,0,0,1,5.521.19c-.19,1.713-3.046,1.9-4.95,2.665a170.789,170.789,0,0,0,6.473,25.321c.571,1.713,1.333,3.427,2.094,5.14,2.285-.381,4-1.333,2.285-4,4.95-.952,4.95,1.142,4.379,3.427-3.617-1.9-3.237,1.9-5.521,3.617,19.8,47.787,63.017,86.625,98.81,123.369a40.522,40.522,0,0,0,4.76-3.046c.571,1.523-1.142,3.046-3.427,4.379,18.467,18.848,34.65,37.315,44.55,56.354q2.57,4.855,4.569,9.71h.19c0,.761,1.142.952,1.523,1.713a1.716,1.716,0,0,1-.952.19c21.513,52.356-2.475,91.956-2.475,91.956-11.994-45.5-35.221-75.2-57.306-94.05-2.856.19-5.14.19-6.092.381,1.523.762,3.046,1.713,4.379,2.475-1.9.19-2.856,1.142-5.9.952.571-2.094-2.665-1.9-1.523-4.188-6.473-.952-15.04-.19-22.656-.19,12.565,19.61,25.512,47.025,28.748,78.819,2.856-2.285,15.04.952,17.515-1.523,2.285,3.617-9.9,2.094-17.515,1.713.19,2.665.571,5.521.762,8.187a89.469,89.469,0,0,1-7.615,41.5c3.046.19,6.283,1.142,6.663,2.475-2.856-.19-5.14-.571-7.425-.571-14.088,29.89-41.123,42.456-41.123,42.456,67.206-8.567,185.435-39.6,222.75-150.023,1.523-4.569,2.856-9.138,4.188-13.708-5.712-.761-10.852-1.142-14.85-.19-3.427.19-1.713-2.475-4.379-2.665,6.473-.19,13.327-.19,20.181,0,26.844-97.1-9.138-157.638-53.879-230.937-15.992-26.463-23.417-54.45-26.083-79.771a3.6,3.6,0,0,1-2.665.381v-5.331a2.449,2.449,0,0,1,2.285.762c-.19-2.094-.381-4-.381-5.9-.19,0-.19,0-.381.19h-1.523v-5.9c.571.19.952.571,1.523.762a33.7,33.7,0,0,0-.19-4.379,11.447,11.447,0,0,1-1.333,2.665v-8.567a2.752,2.752,0,0,1,1.333.381c0-2.665,0-5.14.19-7.806-4.76-1.9-9.329-.19-11.994-3.617,2.665-.19,3.046.952,5.9.952-2.665-1.713-2.665-.762-1.523-3.427-3.617-.381-3.237,1.523-7.425.952-3.808,1.333-1.9,5.712-8.948,5.14-13.517-5.14-18.087,4.76-13.327,9.329-.19,1.9,5.331.381,7.425.952-1.713,1.142-1.523,2.094,1.523,2.475-.381,1.142-3.808.762-5.9.952,1.523,1.142,4.95,1.142,5.9,2.665.381,2.285-5.712-2.285-4.379,1.713,8.377-.762-.762,4,5.9,5.9-4.379,2.665-.952,9.71-8.948,10.281,1.9-2.094-3.237-4.188,0-4.188-5.712-3.617-24.179-2.285-28.177-4.188-4.379.762-1.713,1.333-1.523,3.427-9.329.762-9.138-3.617-18.277-1.9-1.142,3.046-1.713,4.76-1.713,4.76.381-9.138.571-18.087.381-26.654-6.092-2.285-8.948-6.092-15.992-3.617,1.9-2.665-.19-4.569-3.046-5.9,1.9-.571,8.377,2.285,11.8,1.713,2.094-1.333,4.76-2.285,6.854-3.617-1.9-46.644-11.994-83.96-25.321-113.66a19.643,19.643,0,0,1-3.617.19c-.381-1.523.762-2.285,2.665-2.475-.571-1.333-1.333-2.856-1.9-4.188-.952.571-2.665.762-5.14.762,4.379-2.475-3.617-1.523-3.046-4.188h5.9c-.381,1.333,0,2.285,1.523,2.475C291.591,67.967,275.6,47.6,260.749,32.936c-1.523.571-3.046,1.333-1.9,3.427,1.523,1.142,4,1.713,5.9,2.665-1.333,1.523,0,4.569-4.379,4.188-.19-.762.571-.762,1.523-.952-.762-1.142-5.712.571-4.379-3.427-2.665,1.142-3.427.762-3.046-1.713-1.9.952-3.046.762-3.046-.952-1.713.19-1.333,1.523-1.523,2.665-2.856-1.713-7.044-.381-10.471,0,4-3.237,13.327-6.092,19.99-7.235C236.379,8.758,217.341,0,217.341,0,236.57,61.494,210.487,108.519,174.885,160.3ZM16.485,432.173c-1.142.19-2.856,0-3.046.952-2.094-.19-2.856-1.142-5.9-.952V430.46c4.569-.19,6.663-1.9,10.471-2.665,0,.571.19.952,1.523.762C18.579,429.888,17.247,430.84,16.485,432.173Zm26.463,69.3c4,.381,4.95,2.285,5.9,4.189-5.521-2.475-4.95,2.094-1.523,3.427-3.808,1.713-4.379-5.331-10.471-.762C39.331,506.042,42.377,504.329,42.948,501.473ZM31.335,468.917H41.806C40.473,471.392,31.525,472.725,31.335,468.917Zm5.712,83.008a63.07,63.07,0,0,1,19.229-.952C49.993,552.686,43.71,552.115,37.047,551.925Zm17.9,58.067c.19-2.094,4.95-1.713,8.948-1.713C62.939,611.706,59.893,609.992,54.943,609.992Zm50.452-58.067c5.331-.571,5.331,1.523,0,.762H84.643C88.26,550.021,99.112,551.734,105.395,551.925Zm-38.648-1.713c4.188,1.142,10.281.952,16.373.952C80.835,553.638,67.889,553.258,66.747,550.211Zm11.994,59.781c.19,1.9-5.331.381-7.425.952-2.475-.952,7.615-1.713,7.425-4.379,1.333-.19,1.333.381,1.523.952-.19.762.571.762,1.523.952C83.12,609.8,73.22,608.85,78.741,609.992Zm-7.425,3.427c1.142-3.046,10.852-1.142,16.373-1.713C86.547,614.752,76.837,612.848,71.316,613.419Zm17.9-42.837H87.689c-8.948.19-11.042-1.142-16.373.952-.381-2.285,5.712-.762,4.379-3.427,2.285.381,8,3.237,10.471.762h4.379C90.354,569.631,89.212,569.821,89.212,570.583Zm4.379,35.031c2.285.381,3.808,1.333,5.9,1.713-1.333,1.333-4.76,1.142-7.425,1.713A3.354,3.354,0,0,0,93.591,605.613Zm5.9,38.458c-3.237.19-.571-3.046-1.523-4.379,4.569,0,7.615-.761,8.948-2.475h0a3.349,3.349,0,0,0,3.046,3.427C107.108,641.6,101.968,641.215,99.493,644.071Zm148.31-9.329c3.046.381,11.042,2.094,13.327,0h1.523c2.665,3.046-12.185,2.094-13.327,3.427C247.231,637.979,247.993,636.075,247.8,634.742Zm-51.785,39.41h-3.046c-2.856-.381-2.665-2.475-7.425-1.713,4.188-3.237,11.042,1.9,13.327,0h3.046c.381.571,1.333.952,3.046.952C204.775,675.1,198.683,673.581,196.018,674.152Zm-4.569-36.744c-5.331-3.046,8.187-2.665,13.327-2.665-1.333,2.475-5.9,2.856-10.471,3.427C198.493,636.836,192.21,635.313,191.448,637.408Zm53.5-1.713c-2.285,1.333-6.473,1.333-10.471,1.713C233.333,634.171,241.52,636.265,244.947,635.694ZM218.1,637.408h-1.523c-1.333-1.9-8.567,1.333-8.948-2.665C210.868,636.265,226.86,633.981,218.1,637.408Zm1.713-30.842c-2.475,1.523-8.758.762-13.327.952a3.146,3.146,0,0,1-1.523,2.475v3.427c-3.427-.19-2.856-3.046-7.425-2.475v-1.713h7.425c.762-4.189-13.327.19-14.85-2.665C200.968,606.565,213.723,605.613,219.816,606.565ZM185.737,560.3h5.9c1.142.19,2.856,0,3.046.952-3.617-.19-7.235-.19-8.948.952h-4.379C181.168,560.683,185.356,561.635,185.737,560.3Zm5.9-9.329c1.9-.381,3.046-1.142,3.046-2.475h1.523c.571,1.523,4.188,1.523,3.046,4.188a15.9,15.9,0,0,1-7.425-.952A1.145,1.145,0,0,1,191.639,550.973ZM154.323,321.75c2.665.19,3.427,1.523,3.046,3.427-4.76-.571-4.569,1.523-7.425,0C150.325,323.463,153.943,323.654,154.323,321.75Zm-8.948,22.275c4.379,0,7.425,2.475,4.379,4.188C144.614,348.023,143.662,346.5,145.375,344.025Zm-14.85-11.042c-.762-.762-1.523-1.333-1.523-2.665a15.848,15.848,0,0,1,5.9-.952C135.475,331.84,134.523,333.173,130.525,332.983Zm-7.425-63.4c4.569-.381,4,2.285,7.425,2.475.19,1.9-5.331.381-7.425.952Zm3.046,71.013a14.061,14.061,0,0,0,7.425.762c-1.713,2.285-6.663,2.475-11.8,2.665C122.148,342.311,125.766,342.311,126.147,340.6Zm5.9,23.988c-.952,1.333-4.95-2.856-7.425-3.427.381-3.046,5.521,2.094,5.9-.952C134.714,361.16,128.05,363.254,132.048,364.586Zm-35.6-58.067c3.237-.19,3.237-2.094,3.046-4.188.381,0,.571.19.762.19a10.956,10.956,0,0,0-3.617-2.856v-3.427c2.856-.19,3.237.952,5.9.952a12.487,12.487,0,0,0,4.379.952c-1.9,2.475,1.523,5.331-3.046,7.615h0c-.381,1.142-1.523,2.475-1.523,4.379,1.9,2.665,4.379.19,7.425,2.475-.381,3.808-3.237,6.092-8.948,6.854-3.237-3.237-3.237-5.712,0-9.329.19-2.856-7.615-1.333-7.425-4.188C95.3,305.377,96.066,305.758,96.447,306.519Zm8.948,26.463c-2.665,0-3.046-1.142-5.9-.952-1.333-2.665,2.285-2.665,3.046-4.379C107.679,327.081,104.443,331.269,105.395,332.983Zm-5.9-10.281c4.569-.381,4.76,1.9,4.379,4.188C99.3,327.271,99.112,325.177,99.493,322.7ZM80.073,368.775c-.19-1.523,1.9-1.713,1.523-3.427,4,1.333,1.142,3.237,8.948.762C92.829,370.488,83.12,370.3,80.073,368.775Zm6.092,25.7c4.95-.571,5.331,1.523,5.9,3.427C87.308,398.285,85.4,397.142,86.166,394.477Zm5.9-40.933c4.379-1.523,9.9-2.285,8.948-6.854-.381-1.713-4,1.333-5.9-.952,6.854-2.856,8.377-7.425,8.948-11.994,1.523.762,3.046,1.713,4.379,2.475-.381-2.856,5.521-.952,11.8-.762-1.333-1.523-6.663-1.333-3.046-3.427a5.037,5.037,0,0,1,4.379,4.188c-4,2.094-8,.381-13.327,2.665.381,3.808,3.046,6.283,3.046,10.281h-7.425c3.617,2.285,11.8,0,11.8-2.665,3.046.952-.762,5.331-5.9,4.379,4.569,2.665,3.808,6.473,13.327,7.615-.381,3.617,2.475,4,0,6.854-2.475.381-2.856-.571-3.046-1.713-3.808,0-3.427,3.237-1.523,4.188,7.235-1.523,7.615,0,11.8,1.713,4.95-.381-4-3.237,3.046-2.665h4.569c.19,2.285-2.475,1.713,0,3.427A6.927,6.927,0,0,0,141,367.633c3.617.571-2.856,2.285-1.523,4.188-6.283.952-6.473.19-13.327,0,.19-1.523-1.9-1.713-1.523-3.427-4.76,4.188-19.229,1.142-17.9,6.854.19-2.856-5.14-4.95-8.948-7.615-1.333-2.665,4.95-1.142,4.379-3.427C94.923,361.35,96.637,357.352,92.068,353.544Zm47.406,47.787c-1.9-.571-4-1.142-4.379-2.665a7.14,7.14,0,0,1-2.856,0c.381-1.9,3.808-4-3.046-3.427,0-1.142,2.665-.762,3.046-1.713h1.523c1.523,1.142,2.475,2.665,4.379,3.427v.952c-.381,0-.762.19-1.142.19,2.094.381,3.427,1.142,6.854.571C144.614,400.76,137.189,398.285,139.473,401.331Zm-2.856-8.567h-5.9V390.1c3.808.19,4.76,1.713,5.9-.952A2.531,2.531,0,0,1,136.618,392.763Zm-34.269-2.475v-5.9c-2.665-.19-3.046,1.142-5.9.952,1.333-1.713,3.046-3.427,4.379-5.14,4.188.762,3.237,4.379,5.9,5.9,1.713-1.333,4.188-2.094,4.379-4.188,3.617.762-.952,6.283,5.9,5.14-.571,2.856-7.044.571-10.471,0C100.445,387.052,108.631,390.86,102.348,390.288Zm-1.523-12.946c.952-1.333,13.517-2.094,10.471,1.713C106.537,377.533,107.108,378.294,100.825,377.342Zm-10.09,88.91c-3.617-2.475,6.854-1.333,10.471-.952C99.3,468.536,91.306,463.967,90.735,466.252Zm11.613-58.067c.952-3.808.762-8.187-5.9-6.854-1.142-1.9,6.854-2.665,1.523-4.188,7.806-1.713,14.469,4.76,17.9,8.567C107.679,405.9,107.87,406.09,102.348,408.185Zm14.85-5.14c-3.808.571-2.475-5.9-5.9-2.475-2.475-2.285-1.9-9.9-1.523-11.233,2.856.381.19,4,5.9,2.665-6.663,2.094,1.713,4.379,4.379,5.9,1.9-.381,3.046-1.142,3.046-2.665-.571-1.713-4.188,1.333-3.046-2.475,5.521-.571,2.475,3.617,5.9,4.379.952,1.9-10.281,3.046-8.948,0-2.475-.19-2.475.762-4.379.762C113.772,400,119.293,399.427,117.2,403.044Zm10.471,287.29h-5.9v-.952c-.381-2.285,3.046-2.285,5.9-2.665Zm7.425,0c-5.9.19-4-2.285-3.046-4.188C137,685.194,134.333,688.811,135.095,690.335Zm20.752-129.842c-1.9-3.046-7.235-1.142-11.8-4.189-.19-.761.571-.761,1.523-.952h3.046c-.381.762-1.523.952-1.523,1.713,4.188.19,2.856-2.856,8.948-1.713A46.4,46.4,0,0,0,155.847,560.492ZM176.6,636.456c-6.473-.762-17.135.761-16.373-4.379C165.556,635.313,174.885,630.935,176.6,636.456Zm-3.046-81.294c-14.088-.571-31.985-1.333-44.55-1.714h-1.523c-2.094-3.237,6.663-.19,4.379-3.427C143.281,555.161,161.748,550.211,173.552,555.161ZM151.468,370.679c-5.331-1.523-4.379.19-8.948.762,1.523-1.142,1.523-3.237,3.046-4.188.952.571,7.044,1.9,7.425,0C156.418,367.442,151.087,369.536,151.468,370.679Zm7.235-13.708c-4.188.19-7.044,1.142-5.9,4.379h-4.379c-.571-2.856,3.237-3.237,4.379-5.14-.381-1.142-3.808-.762-5.9-.762a3.776,3.776,0,0,0,1.523-4.188c4-.571,3.046,1.713,5.9,1.713,1.142-.19,1.523-.952,3.046-.952-.381-3.427-5.14.952-4.379-2.475a15.849,15.849,0,0,1,5.9-.952C159.845,352.592,156.227,354.115,158.7,356.971Zm0-82.246a3.712,3.712,0,0,0,1.523-3.427c5.9-.19,8.567,3.617,10.471-.952,3.427.571,3.237,3.237,7.425,3.427C171.458,278.152,164.033,274.535,158.7,274.725Zm78.819,26.654c-1.9-.952-5.521-.952-7.425-1.713C231.62,297.381,238.664,297.571,237.522,301.379Zm68.158,265.777c-2.856,2.665-7.615-8.377,0-6.854C303.966,562.967,304.727,566.2,305.679,567.156ZM336.9,677.579c-.571,1.142-1.9,1.713-4.379,1.713H331c0-1.142-1.9-1.142-1.523-2.475C333.666,676.056,333.285,677.96,336.9,677.579Zm-10.471,17.135c-3.237-2.285,2.475-4,7.425-2.475C338.045,693.381,325.86,692.429,326.431,694.713Zm16.373-4.379c-3.046-.571-9.71,1.142-10.471-.952.952-2.094,6.854-1.142,11.8-2.665A4.74,4.74,0,0,0,342.8,690.335Zm1.523-50.452c-5.9-1.142,4.379-4,0-4.188,3.427-3.427,1.9,2.665,4.379,2.475C348.135,641.025,342.995,635.885,344.327,639.883Zm51.975-99.19c-5.9-.952-.762-3.237,1.523-4.189h1.523C400.491,538.979,395.35,538.027,396.3,540.692Zm5.9,19.8c3.046,3.427,20.752-.952,16.373,5.14-3.427-3.808-8.948-1.142-16.373-.762C400.3,563.538,400.3,561.444,402.2,560.492ZM426,473.106c-4,1.142-1.713,2.094,0,4.188-1.9,1.142-7.235.381-7.425,2.475,2.475,2.285,2.475,10.471,0,12.756-1.142-5.521-.381-7.044-4.379-11.042v-1.713h1.523c-.19-5.331,1.9-9.519,1.523-19.61-3.237-.952-9.519-.19-10.471-2.475,10.852.19,5.331-6.092,10.471-7.615.381.571,0,1.713,1.523,1.713v21.323C422.385,474.248,424.86,470.631,426,473.106Zm-5.9-16.183c3.427-2.094,2.856,1.333,7.425.952-1.713,1.9-6.283,2.094-4.379,5.9h-1.523c0-.571-.19-.952-1.523-.762C420.481,459.779,422.195,459.588,420.1,456.923ZM426,528.7c-3.808,0-2.856-2.856-3.046-5.14C428.477,522.8,425.241,526.984,426,528.7Zm0-12.756c-8.377-2.285,1.713-7.235,1.523-10.281C432.095,508.517,422.956,510.992,426,515.942Zm-10.281-17.135c11.042,1.333,2.475,8.567,5.9,16.183C414.579,510.611,418.2,505.471,415.721,498.808Zm5.9,36.744c-3.046-.19-3.046-2.285-4.379-3.427v-.952c2.094-.19,1.713-1.9,3.046-2.665C422,530.221,420.862,531.935,421.623,535.552Zm-8.948,67.587c-5.14.952-4.379-6.283,1.523-4.188C413.246,600.092,415.912,603.329,412.675,603.138ZM415.721,586c-.19,1.142-.381,2.094-3.046,1.714v-.762c4.76-2.285-4.379-7.425,5.9-6.854C415.531,580.673,415.15,583.148,415.721,586Zm2.856-7.615c-4.379-1.713-4.379-6.092-5.9-9.329,6.283-.19,11.994,0,10.471,4.188h-1.523C420.672,569.06,417.435,575.723,418.577,578.388Zm3.046,0V574.2c5.14-.571,2.475,3.237,5.9,3.427-4.379.952-5.14,3.808-4.379,7.615C419.148,582.958,421.814,581.815,421.623,578.388Zm14.85,82.817c-6.663-.19.571-5.331-3.046-5.9V653.59C444.089,657.4,435.9,656.065,436.473,661.206Zm4.379-13.708v2.475c-2.665,0-3.427-.952-3.046-2.665-2.094.19-1.333,2.094-1.523,3.427-1.523,0-1.713-.762-3.046-.762h-1.523c-1.713.952-5.331.952-8.948.762,0-1.713,4-1.142,3.046-3.427a15.765,15.765,0,0,1,5.9.762c3.237.19.762-3.046,1.523-4.188v-.952c4.379-2.285-2.475-5.9,1.523-8.567,2.856,4.569,3.427-1.714,3.046-1.714,1.713,0,4.379,4.569,1.523,9.329-3.427-.19-.952-3.808,0-4.188-6.092-.19-1.523,5.9-3.046,8.567,2.094-.19,1.333-2.094,1.523-3.427C441.233,643.5,441.233,645.4,440.852,647.5Zm-1.333-19.61v3.427C431.714,632.077,440.852,621.225,439.52,627.888ZM438,607.327v-.952c-.381-3.046,4-3.427,7.425-4.188C442.756,603.9,441.423,606.185,438,607.327Zm-15.04-41.885c.381-1.142,6.092-1.523,0-1.714,8.187-3.427,26.654.762,35.6,0C450.943,568.679,432.666,564.871,422.956,565.442ZM467.7,528.7v.952c-5.9,1.333-13.327-2.856-13.327-7.615a4.349,4.349,0,0,0,3.046-1.713h3.046c3.237,1.9,9.138,2.285,11.8,4.188C472.837,527.175,468.077,526.794,467.7,528.7Zm13.327-122.227c.952.952-3.046,6.283-8.948,5.9C469.41,413.515,479.31,408.375,481.023,406.471Zm-8.948,8.567c-5.14,1.9-9.9,4-13.327,6.854a4.349,4.349,0,0,0-3.046,1.713c-1.713-.19-2.285,1.142-3.046,0C459.51,421.321,462.746,412.754,472.075,415.038Zm-34.269-5.14c-6.092-.571-3.046-2.285-3.046-5.14C437.616,406.661,439.9,407.233,437.806,409.9Zm-4.379-91.575c1.713.19,1.523,1.333,1.523,2.475v.952c.381,1.713-.19,8.948-1.523,4.188Zm1.523,36.744c-2.094-.952-2.856-2.856-3.046-5.14C438.377,349.736,436.093,353.163,434.95,355.067Zm-1.523,1.713c4.569.571,1.9,2.285,1.523,4.188h-1.523C429.429,359.827,431.333,358.494,433.427,356.781ZM411.152,271.3c5.712-.762,1.713,4.188,7.425,3.427h3.046c-4.95,3.808-.381,5.521,1.523,9.329-2.094,0-4.188-.19-4.379.762-3.427-.952-.571-5.331-1.523-7.615C414.008,278.723,406.964,276.058,411.152,271.3Zm8.948,83.769c-3.046-.762-.952-12.375-3.046-17.135C425.241,341.36,419.339,349.546,420.1,355.067Zm-1.523,30.081v-9.329C420.672,366.11,421.623,389.146,418.577,385.148Zm-5.9,40.171c4.76-6.854,6.663,8.377,1.523,2.475v-.952h1.523C415.531,425.89,415.341,424.938,412.675,425.319Zm1.523-69.3a4.281,4.281,0,0,1-3.046-3.427v-2.475c1.9,0,2.094-1.142,4.379-.952C413.437,352.211,416.483,352.973,414.2,356.019Zm5.9-29.89c-2.856-.381-1.142-3.237-5.9-2.475C414.2,320.608,422,321.56,420.1,326.129Zm-8.948-45.312a7.811,7.811,0,0,1,4.379,5.14C410.391,286.338,411.152,283.292,411.152,280.817Zm0,47.025v-2.665c2.665-.762.952,4.95,3.046,1.713,2.475,2.285-2.094,16.563-4.379,5.9C411.533,331.84,411.343,329.936,411.152,327.842Zm4.569,42.646v.952c-1.333,1.9.381,5.9-1.523,9.329-4.379-.762-.381-3.237-3.046-3.427v-.952c2.856-3.237,2.285-10.852-1.523-12.756C418.577,361.921,410.962,369.727,415.721,370.488Zm-3.046,76.154c1.713-2.665-2.285-2.094-3.046-3.427,4.95.381,8.187-4.569,3.046-5.14v-.952c1.713-.19,1.333-1.523,1.523-2.665h5.9c-5.712,2.665-2.475,4.95-4.379,9.519,1.523-.571,1.523-1.9,4.379-1.713V435.41c1.142.571,4,1.333,4.379,0H426c2.285,0,1.142-2.285,4.379-1.713-.381,1.142-2.475,1.523-3.046,2.475,8.377-.952,12.375-8.758,19.229-7.615-5.521,2.475-15.421,6.283-13.327,10.281-1.9,0-2.094-1.142-4.379-.952-4.95,3.237-1.9,6.092-8.948,8.567V445.5c1.142-.19,1.713-.762,1.523-1.713-6.663,4.188-7.615,6.473-17.9,8.567.952,3.237,1.142,2.665,1.523,6.854-6.473-.571,1.142,1.713-3.046,1.713-.19-1.523-4.95-.571-4.379-2.475C405.06,454.448,401.062,448.165,412.675,446.642Zm-14.85-112.9c1.523,0,1.713.762,3.046.952v4.188C391.923,341.931,390.02,335.077,397.825,333.744Zm-14.85-76.915h4.379c1.713,4.379,3.046,9.71,1.523,13.708C379.548,270.156,383.927,261.969,382.975,256.829Zm14.85,197.429c-2.094,6.473-9.138,7.044-17.9,12.756C379.929,462.825,394.018,459.208,397.825,454.258Zm-28.177-24.75c3.617.19.381,2.856,0,3.427.952.952,3.427.952,3.046,2.475-4.569-.19-4.569-3.046-5.9-5.14C368.316,430.65,369.268,430.269,369.648,429.508Zm0,41.123c1.142-.19,1.523-.952,3.046-.952,3.046.762,3.046-4.379,4.379-1.713-7.615,5.9-17.515,10.471-26.654,15.421C354.227,477.675,364.7,475.771,369.648,470.631Zm-41.694-263.3c8,.381-3.237,6.854,4.379,6.854C325.479,215.9,327,210.375,327.954,207.329Zm-2.856.762c1.333,3.237-6.473,1.333-4.379,5.14C315.579,211.9,317.864,208.281,325.1,208.09ZM313.1,396.19V392c3.617.571,6.854,1.142,7.425,3.427C316.341,394.667,316.722,396.571,313.1,396.19Zm4.569-53.879c.571-1.523,3.808-4.95-3.046-5.14,1.713-1.333,1.333-3.808,5.9-3.427C320.91,335.458,324.527,341.169,317.673,342.311ZM325.1,444.929c-3.808,0-3.427-3.237-1.523-4.188,2.285-.19,2.475.762,4.379.952C329.1,443.786,325.1,443.215,325.1,444.929Zm2.856-16.183A3.812,3.812,0,0,1,331,432.173c-2.856-1.523-2.665.571-7.425,0C322.243,429.317,327.383,430.269,327.954,428.746Zm-4.379-180.485c-2.094,1.142-7.425,1.9-8.948.762C315.579,246.358,320.339,247.881,323.575,248.261Zm-14.85,7.806a15.9,15.9,0,0,1,7.425.952c-2.285,1.333-5.14,4.379,1.523,4.188-5.331,4-5.331-1.9-11.8-1.713C306.441,258.162,310.439,258.733,308.725,256.067Zm1.523,157.258c3.617.19.381,2.856,0,3.427-2.094-.762-4.76-1.333-4.379-3.427C309.677,412.373,309.487,417.513,310.248,413.325ZM197.35,157.638c-.381,2.475-.19,4.76,4.379,4.379-2.094,2.094-5.14,1.523-8.948.762.19-2.094.19-4.188-1.523-5.14a12.486,12.486,0,0,1-4.379.952c-2.665.952-.952,4.569-7.425,3.427a10.279,10.279,0,0,0,1.523-9.519c2.856.381,3.808,1.9,7.425,1.713,4.95-.571-1.9-5.521,1.523-5.14,4.188.381,4.188,3.237,5.9,5.14-1.142.762-4,.571-4.379,1.713,3.808.762,9.9.571,13.327-.952C204.966,157.448,201.158,157.638,197.35,157.638Zm8.948,72.727c4.95-2.665,12.185-2.475,17.9-1.713C218.673,231.127,213.723,228.842,206.3,230.365ZM259.8,371.44c-1.9-.19-1.523-1.713,0-1.713-.762-3.237-5.712,1.142-4.379-3.427-.381-.952-2.856-.571-3.046-1.713.19,1.523-1.142,5.712-4.379,7.615-2.285-1.9-1.9-5.14-8.948-4.188-3.237-1.142,8.758-.571,7.425-3.427.381-2.285-8.377.762-5.9-2.665,9.9,1.9.952-1.523,8.948-2.475-4,3.808,2.094,4,4.379,4.188,2.094-.952-.571-1.333,3.046-2.475,3.427.19.952,3.808,0,4.188.19.762,1.523.762,1.523,1.713,1.9-.381,3.046-1.142,3.046-2.475C265.889,366.49,259.225,369.156,259.8,371.44Zm-4.569-10.281c-4,.19-3.808-1.713-4.379-3.427,2.665.19,3.046-1.142,5.9-.952C257.322,358.875,254.085,358.685,255.227,361.16Zm-4.379-87.2c-1.713-.19-.952-1.713-3.046-1.713.952-2.094,5.521-1.9,8.948-2.475C257.893,272.821,251.039,271.488,250.848,273.963Zm14.85,0a55.261,55.261,0,0,0-13.327.952C254.466,273.012,265.889,269.394,265.7,273.963Zm-1.523,18.848h-1.523c.571-1.142-9.329-3.427-1.523-5.14h1.523c.381.762,1.333.952,3.046.762C264.937,289.765,267.412,292.811,264.175,292.811Zm5.9,114.612c2.094.762,4.76,1.333,4.379,3.427a12.486,12.486,0,0,1-4.379.952C268.173,410.469,268.173,408.375,270.077,407.423Zm0-108.71c.762-2.094,1.333-4.379,5.9-4.188v.762C274.266,296.619,274.837,299.094,270.077,298.713Zm11.994,132.508c-1.9-.19-1.523-1.713,0-1.713a13.152,13.152,0,0,0-4.379-1.713c.381-1.523,2.475-1.9,5.9-1.713-.381-1.9.381-3.237,3.046-3.427-4.95-1.9-8.758,2.094-13.327,0,6.663-4,6.092-5.14,16.373-5.9.762,1.333-5.712,2.094-1.523,2.665,0,.762,1.9.571,3.046.952,1.333,3.046-3.808,4.379,1.523,5.14C288.925,427.413,282.072,427.413,282.072,431.221Zm4.379-17.9c.381-.762,1.523-.952,1.523-1.713-1.333-1.523-6.092-1.142-4.379-4.379,1.9.952,2.856,2.285,5.9,2.475C289.116,411.421,290.829,414.277,286.45,413.325Zm8.948,23.037c-2.475,1.523-9.138.952-10.471-.952.19-5.14,10.852.952,7.425-5.9C302.823,429.317,295.589,433.315,295.4,436.361Zm2.856-95.763c.19,1.523,4.95.571,4.379,2.475v.952c.571,3.046-1.142,2.665-4.379,8.567-4.379-.571-8.567-1.333-10.471-3.427-3.808-3.427,5.331-5.712,7.425-8.567ZM283.4,192.669c1.333.19,1.333-.381,1.523-.952,4.95.762-1.713,1.713-1.523,2.665-4.379-.762-.381-3.237-3.046-3.427C281.12,188.671,285.118,190.956,283.4,192.669Zm0,6.854c1.9-.952,9.329-.381,8.948,2.665h-5.9c-.571,1.523,1.142,1.523,3.046,1.713-.762,1.713-2.285,1.713-4.379.952-1.333,5.331,6.663,5.331,5.9,10.281-1.523,0-1.142-1.142-1.523-1.713-9.9,2.856-7.615-11.994-13.327-17.9C281.31,195.144,283.785,196.477,283.4,199.523Zm0,18.087c3.237.762,2.094,6.283-3.046,5.14C279.787,219.894,285.118,220.656,283.4,217.61Zm4.569,47.025c.571,1.523-2.285,2.285,0,2.665.571-2.285,4.76,0,3.046,1.713-2.856.19-3.237-.952-5.9-.762-4.569,7.806,2.665,9.329,0,18.848-3.046,0-1.9,2.285-5.9,1.713v.952h-1.523c-8.948.952-10.852-2.285-14.85-4.188v-1.9c-4-3.237-3.617-.571-7.425-1.713,10.09-4.76,14.66-9.329,14.85-16.183,3.808,1.142,6.283,5.14,4.379,7.615C284.166,271.488,277.693,265.777,287.973,264.635Zm-17.9-74.44c1.333.762.952,2.285,3.046,2.665-.19.952-1.523.381-1.523,0-4-.571-2.856,1.713-4.379,2.475-1.333-2.665-4.569-4.188-5.9-6.854C263.795,189.242,264.937,190.765,270.077,190.194Zm-7.425-19.8c2.285,3.808-5.9,6.854,0,11.994h-7.425c.571-4.95,3.237-4,1.523-9.329C259.987,174.963,262.652,172.869,262.652,170.394ZM259.8,163.54c2.094.19,1.333,2.094,1.523,3.427h-5.9C253.895,164.3,259.035,165.254,259.8,163.54Zm-7.425,1.9c-.571,1.713-.571,3.617-4.379,3.427C245.137,167.348,248.373,165.444,252.372,165.444ZM247.8,94.431c-3.808,1.523-.952,1.333-3.046,3.427-3.617,1.142-6.092-2.475-7.425,0-2.285-.762-2.094-2.856-3.046-4.379C241.9,94.621,241.71,93.1,247.8,94.431Zm-10.281,75.963c3.237,2.475,11.042,2.094,17.706,2.665-2.856,5.712-12.375-.952-19.229,1.713,4.95,4.569,20.562,5.712,23.8,13.708-15.8-4.188-24.94-12.375-41.5-16.183,1.333-2.856-.952-3.808,5.9-4.188-6.283,3.427,6.092,3.617,10.471,5.9C237.141,173.631,237.9,172.488,237.522,170.394ZM224,158.59c-5.331-1.9-7.425-.571-16.373-.952-.381-4.188,14.279.381,16.373-2.665C227.431,153.069,223.433,156.877,224,158.59Z" transform="translate(0)"/><path class="a" d="M208.956,134.448c4,.19,2.665,3.617,5.9,4.188,3.427-2.094-1.333-6.663-7.425-6.092,3.617-3.808-5.712-6.663-5.9-11.042-1.333-2.475-2.285,1.9-5.9.952,7.235-1.9-4-3.617-1.523-6.854a5.827,5.827,0,0,0-2.856.571c-.381.762-.952,1.333-1.333,2.094,0,.19-.19.571-.19.762h-.381A151.148,151.148,0,0,0,176.4,143.206c7.425-3.808,37.125,3.237,29.7-6.283h-7.425c-2.094-3.237,6.663-.19,4.379-3.427C204.958,133.5,207.433,137.113,208.956,134.448Zm-16.373-2.665h7.425C201.531,135.21,191.06,135.21,192.583,131.783Z" transform="translate(159.17 104.485)"/><path class="a" d="M163.465,305.977c3.617,0,7.235.19,9.138,1.713,5.521-.952,3.808-1.9,10.471-.952.19-1.333-.571-3.237,1.523-3.427a56.422,56.422,0,0,0,7.235,1.713C165.179,283.7,141,277.8,141,277.8A200.16,200.16,0,0,1,163.465,305.977Z" transform="translate(127.173 251.088)"/><path class="a" d="M16.925,217.756c3.427.571,4-.571,6.092-.762-.571-3.046-.952-5.9-1.333-8.567h-.19v-.952C19.4,193.958,19.019,185.2,19.019,185.2c-3.237,7.235-6.473,15.04-9.519,23.227C13.5,211.854,14.831,212.425,16.925,217.756Z" transform="translate(8.318 167.392)"/><path class="a" d="M226.417,116.15c0-.19.19-.381.381-.571,0-1.333.19-2.665.19-4-5.521-.762-11.233-.381-14.088,1.142,5.712-.19,10.852,0,13.327,1.713C224.894,114.437,224.513,115.96,226.417,116.15Z" transform="translate(192.16 100.508)"/></g></svg>