<svg xmlns="http://www.w3.org/2000/svg" width="499.825" height="718.757" viewBox="0 0 499.825 718.757"><defs><style>.a{fill:#fff;}</style></defs><g transform="translate(-0.129)"><path class="a" d="M219.964,123.624a9.955,9.955,0,0,1-1.331-.781c-1.693,1.9-3.328,3.793-4.846,5.682C217.606,127.921,217.571,125.07,219.964,123.624Z" transform="translate(137.428 79.015)"/><path class="a" d="M213.881,129.716a4.961,4.961,0,0,0-.71-1.993c-.416.537-.858,1.08-1.259,1.615C212.559,129.463,213.123,129.56,213.881,129.716Z" transform="translate(136.222 82.153)"/><path class="a" d="M232.793,163.562c-.9-2.256,1.849-6.662-1.456-7.546C231.74,158.545,227.444,161.854,232.793,163.562Z" transform="translate(147.911 100.352)"/><path class="a" d="M65.664,215.916c.01-1.665,3.975-1.075,2.912-3.351-1.858-.064-2-1.076-4.356-.864C65,212.944,62.5,216.064,65.664,215.916Z" transform="translate(41.092 136.151)"/><path class="a" d="M261,134.766h8.735c-.143-.631.79-1.195,1.885-1.678.67-5.462,1.453-10.428,2.258-14.8-1.178-.432-2.072-.677-2.675.542-1.72-2.246.452-1.873,2.856-1.543a177.2,177.2,0,0,1,4.677-19.6,138.673,138.673,0,0,0-58.517,35.255,3.043,3.043,0,0,0,1.426,2.667C233.593,135.862,249.688,143.723,261,134.766Zm.125-27.741c2.476-.169,3.758,1.433,4.356,0,3.055.736-.465,4.7-4.356,4.2C262.14,108.649,262.14,109.618,261.128,107.025Z" transform="translate(141.567 62.834)"/><path class="a" d="M199.983,134.918c-.01-.495-.01-1-.02-1.494-.358.058-.67.141-1.04.192A3.434,3.434,0,0,0,199.983,134.918Z" transform="translate(127.868 85.82)"/><path class="a" d="M172.021,157.335a7.819,7.819,0,0,0,3.217.805c-.488,1.109-2.588,1.131-4.185.6-11.125,16.125-23.122,32.754-34.913,50.47,4.644-.271,9.034-.539,12.873-.688.754,4.088-8.827,2.741-11.655,2.529,5.29,2.941-1.181,4.023-6.021,5.469q-3.793,5.839-7.519,11.843c4.9-.485,10.817-1,12.084,2.82-4.009-.917-9.7-.682-13.119-1.163-7.148,11.634-14.025,23.805-20.389,36.621a3.735,3.735,0,0,0,1.451,1.474c-.455-1.011,4.212-2.867,4.368-.843-2.44,1.091-5.773,1.668-7.633,3.091-.189.393-.353.785-.539,1.178,7.763.343,4.451,5.3.894,6.65.258.738-.567.8-1.466.843-1.308,1.931-2.521,2.026-3.411,1.227a239.181,239.181,0,0,0-10.15,28.967c1.145.286,2.264.587,3.484.833v3.352c-2.169,2.381-2.087,6.07-4.368,8.41a3.937,3.937,0,0,1-2.641,1.323,250.652,250.652,0,0,0-5.322,38.9,2.591,2.591,0,0,0,.55.1,3.034,3.034,0,0,1-.583.45c-.25,4.364-.412,8.688-.447,12.942a4.607,4.607,0,0,0,2.486-1.651c5.648.864,6.009-.422,10.2.843,1.393,3.88-3.893,3.921-5.824,5.881-1.653-.146-.805-.843,0-.843,1.3-2.7-4.749-1.158-5.833-2.508a1.945,1.945,0,0,0-1.055.463c0,7.874.365,15.517.978,22.933a32.558,32.558,0,0,1,8.822.107c-.1,3.415,4.759,3.985,2.912,8.39h2.912c-1.219,1.982-6.381-.716-8.735-.845a3.437,3.437,0,0,0,1.466-3.351c-.689-1.39-4.833-2.877-7.2-2.2A307.531,307.531,0,0,0,89.085,462c10.9.058,7.618.6.263.917a283.273,283.273,0,0,0,14.478,38.537h1.6c2.756.191,3.211-.948,5.824-.843-.072,1.075-1.87,1.158-1.456,2.529-3.222.529-3.771-.465-5.528-.771,1.334,2.8,2.162,4.354,2.162,4.354-17.752-10-31.512-24.458-42.227-40.628a5.423,5.423,0,0,0-1.034.092,9.065,9.065,0,0,0,.713-.564q-1.016-1.546-2-3.107c-1.489-.391-2.94-.935-3.094-2.187.7.2,1.369.325,2.047.473a198.187,198.187,0,0,1-14.615-29.448c-2.11-.983-3.768-.442-4.923-1.252-.24-1.471,1.451-1.824,3.732-1.837-1.474-3.842-2.846-7.669-4.088-11.453-3.515-.846-6.19-2.054-8.5-1.781-.846-3.331,5.988.148,7.289.843a2.474,2.474,0,0,0,.743-.546A294.821,294.821,0,0,1,31.2,378.089c-2,1.132-4.971,1.709-7.5,2.517,3.531-2.276-2.6-4.088-2.931-6.724-.475,1.775-2.971,2.448-5.667,2.879-15.574,46.657-23.01,106.283-2.184,168.2a282.656,282.656,0,0,0,23.651,52.034c3.2.057,6.5.47,7.638,1-.922.753-3.6,1.017-6.428,1,.968,1.632,1.967,3.2,2.955,4.8,2.9-.5,6.2-.712,7.728.1-2.494,1.569-4.271,1.31-7.023,1.04,27.034,43.187,61.139,72.5,84.8,85.316,29.333,15.888,93.087,27.358,123.134-11.578a15.071,15.071,0,0,1-2.721-1.74c.371-1.182,3.191-.948,4.356-1.688v.955a70.138,70.138,0,0,0,8.707-16.539c12.12-33.423-12.63-65.689-40.62-108.47-3.658,1.183-7.493,2.271-7.3,5.674-2.5.146-3.778-1.454-4.376,0-1.783-2.5,4.447-5.6,11.152-6.473-.416-.636-.835-1.295-1.252-1.934-2.066.033-5.132-.205-2.613-.848.7-.053,1.237-.2,1.877-.291-.112-.171-.222-.345-.334-.516-.577.008-1.043-.013-1.666.007-2.169.716-2.107,2.7-2.912,4.2-2.23,0-4.79-2.3,0-1.665-3.635-1.476-2.126-1.39,0-3.351-5.761,3.245-12.152-1.75-16.035,1.665-3.778.232-10.293-5.058-11.655-.843-2.89,0-1.858-2.276-5.822-1.686,12.561-1.835,24.778-1.315,36.578-.657-16.5-25.651-33.467-55.123-44.286-90.7-1.87.718-5.119.094-6.737-1.007,1.262-.784,3.921-.759,6.109-1.006A261.2,261.2,0,0,1,160.3,403.14c-.156-1.592-.223-3.125-.347-4.7-1.9.371-3.766,1.551-6.576,1.471,2.19,1.244.145,4.341-4.368,4.215,2.736-1.624-.856-1.538,0-4.215,3.646.127,4.553-1.285,5.824-2.508-2.406-2.93-3.6-4.68-4.368-6.724-.62-2.319,5.431-.779,5.824-2.529,1.249-.148,1.374.358,1.466.843-.268.716.569.8,1.446.864-2.973.779-5.142,2.044-5.824,4.174.444.644,4.456,1.369,6.346,1.3a212.03,212.03,0,0,1,2.473-50c-1.551.25-2.116,1.065-1.528,2.522-3.985-1.791,1.456-3.837-1.466-5.86a5.561,5.561,0,0,1,3.423.907,193.545,193.545,0,0,1,5.355-21.891l-.023-.012c.012-.051.053-.084.069-.13C189.176,252.723,240.946,221,240.946,221s-18.6,26.627-22.642,67.173a7.67,7.67,0,0,1,.659,2.616,4.816,4.816,0,0,1-.966.363,153.774,153.774,0,0,0,1.39,36.468,5.887,5.887,0,0,1,5.4.1c-.168,1.694-3.02,1.84-4.854,2.575a159.045,159.045,0,0,0,6.417,24.878c.6,1.717,1.389,3.36,2.051,5.055,2.246-.452,3.873-1.262,2.222-3.967,4.864-.845,4.78,1.16,4.368,3.351-3.489-1.806-3.252,1.908-5.414,3.51,19.408,46.863,61.847,85,97.063,121.161,1.63-.946,3.188-1.936,4.657-2.981.5,1.551-1.062,2.927-3.421,4.244,18.039,18.591,34.047,36.7,43.77,55.243,1.676,3.2,3.114,6.338,4.447,9.448.09-.013.156-.038.25-.049-.012.822,1.165.991,1.456,1.665-.3.127-.61.135-.91.242,21.087,51.469-2.46,90.193-2.46,90.193-11.848-44.656-34.5-73.777-56.252-92.418-2.741.115-4.99.273-5.958.319,1.487.822,2.953,1.645,4.378,2.508-1.962.274-2.787,1.2-5.843.845.62-2.024-2.642-1.835-1.446-4.2-6.381-1.027-14.684-.182-22.2-.256,12.309,19.227,25.025,46.1,28.234,77.366,2.838-2.187,14.819.856,17.278-1.561,2.23,3.489-9.637,2.136-17.269,1.679.273,2.67.555,5.336.682,8.067a88.432,88.432,0,0,1-7.414,40.737c3.056.176,6.111,1.07,6.512,2.4-2.856-.22-5.112-.572-7.344-.651-13.916,29.321-40.418,41.628-40.418,41.628,66.042-8.343,182.141-38.931,218.638-147.38,1.541-4.58,2.772-8.975,4.042-13.394-5.52-.716-10.681-1.132-14.621-.248-3.367.255-1.61-2.424-4.377-2.529,6.326-.136,13.047-.115,19.834.015,26.429-95.336-9.044-154.692-52.844-226.811-15.772-25.969-22.931-53.4-25.514-78.408a3.24,3.24,0,0,1-2.554.463v-5.059a2.613,2.613,0,0,1,2.189.723c-.169-1.97-.319-3.929-.434-5.865-.112.031-.168.074-.289.1h-1.466v-5.86a12.714,12.714,0,0,1,1.513.83c-.056-1.449-.084-2.872-.112-4.3a12.049,12.049,0,0,1-1.4,2.624v-8.41a2.282,2.282,0,0,1,1.354.4q.012-3.89.141-7.625c-4.68-1.821-9.08-.2-11.81-3.632,2.611-.105,3.066,1.012,5.832.845-2.7-1.624-2.674-.674-1.466-3.372-3.5-.338-3.16,1.538-7.289.843-3.655,1.244-1.962,5.607-8.735,5.038-13.277-5.059-17.84,4.616-13.111,9.233-.246,1.834,5.163.378,7.279.843-1.62,1.2-1.559,2.044,1.456,2.508-.444,1.139-3.645.7-5.824.843,1.426,1.16,4.915,1.1,5.824,2.531.434,2.233-5.648-2.235-4.368,1.686,8.292-.781-.754,3.921,5.833,5.86-4.274,2.572-1.012,9.485-8.744,10.076,1.89-2.087-3.252-4.069,0-4.2-5.626-3.584-23.654-2.235-27.7-4.193-4.233.736-1.632,1.265-1.444,3.351-9.123.79-9.054-3.633-17.927-1.863-1.168,2.908-1.766,4.729-1.766,4.729.44-9.061.5-17.72.385-26.186-5.942-2.332-8.771-5.99-15.67-3.535,1.817-2.593-.268-4.511-2.912-5.881,1.941-.549,8.249,2.213,11.655,1.688,2.108-1.244,4.583-2.271,6.648-3.533-1.952-45.737-11.775-82.457-24.914-111.65a14.405,14.405,0,0,1-3.59.174c-.288-1.471.779-2.158,2.588-2.419-.641-1.387-1.28-2.769-1.936-4.121-.958.636-2.685.822-5.03.659,4.336-2.424-3.635-1.456-2.912-4.2h5.843c-.4,1.316.057,2.172,1.536,2.42A226.491,226.491,0,0,0,255.7,31.344c-1.53.595-2.927,1.267-1.778,3.4,1.444,1.137,3.9,1.686,5.843,2.529-1.352,1.454.041,4.489-4.376,4.2-.258-.7.567-.781,1.466-.843-.827-1.034-5.638.633-4.378-3.352-2.57,1.2-3.324.759-2.912-1.686-1.8.948-2.994.738-2.912-.843-1.714.127-1.239,1.538-1.466,2.529-2.767-1.665-6.877-.421-10.2,0,3.977-3.122,13.1-5.945,19.556-7.067C232.4,8.54,213.833,0,213.833,0,232.72,60.393,206.987,106.5,172.021,157.335ZM16.53,424.221c-1.126.191-2.881.021-2.9.845-1.982-.274-2.8-1.2-5.845-.845v-1.665c4.481-.232,6.547-1.835,10.2-2.529.082.527.227.991,1.466.822C18.689,422.112,17.284,423,16.53,424.221Zm26.111,68.044c3.862.3,4.915,2.192,5.824,4.2-5.349-2.4-4.905,2.024-1.456,3.352-3.666,1.643-4.387-5.165-10.2-.822C38.925,496.839,41.919,495.216,42.641,492.265ZM31.1,460.33H41.3C40.163,462.754,31.408,464.061,31.1,460.33Zm5.71,81.471a61.714,61.714,0,0,1,18.945-.864C49.569,542.623,43.25,541.99,36.809,541.8Zm17.612,57.02c.154-2.13,4.884-1.645,8.745-1.665C62.279,600.59,59.16,598.821,54.421,598.821Zm49.423-57.02c5.265-.633,5.265,1.433,0,.822h-20.4C87.088,540.072,97.774,541.717,103.844,541.8Zm-37.889-1.707c4.088,1.034,10.056.948,16.023.843C79.666,543.528,67.11,543.107,65.955,540.094Zm11.78,58.727c.246,1.834-5.163.4-7.279.864-2.416-.928,7.537-1.771,7.279-4.216,1.249-.146,1.372.339,1.454.845-.268.736.578.8,1.466.843C82.019,598.714,72.314,597.682,77.735,598.821Zm-7.279,3.372c1.032-3.037,10.614-1.159,16.023-1.665C85.447,603.561,75.865,601.667,70.455,602.193Zm17.49-41.969H86.48c-8.693.191-10.86-1.075-16.023.843-.434-2.212,5.638-.674,4.368-3.351,2.3.422,7.815,3.224,10.2.822h4.368C89.122,559.213,87.946,559.38,87.946,560.223ZM92.3,594.647c2.169.421,3.676,1.223,5.824,1.665-1.219,1.244-4.667,1.2-7.279,1.686A3.358,3.358,0,0,0,92.3,594.647Zm5.824,37.774c-3.15.146-.651-2.994-1.446-4.216,4.44.064,7.424-.736,8.745-2.508v-.02a3.469,3.469,0,0,0,2.912,3.372C105.536,629.933,100.541,629.49,98.126,632.421Zm145.594-9.214c2.933.36,10.821,2.087,13.133,0H258.3c2.56,2.91-12,2.087-13.113,3.352C243.039,626.412,243.854,624.537,243.719,623.208ZM192.85,661.784h-2.912c-2.777-.337-2.632-2.381-7.278-1.665,4.149-3.226,10.924,1.918,13.111,0h2.912c.32.652,1.218.969,2.912.843C201.41,662.816,195.412,661.3,192.85,661.784Zm-4.491-36.046c-5.255-3.078,7.981-2.634,13.113-2.529-1.28,2.361-5.855,2.784-10.2,3.352C195.258,625.211,189.145,623.756,188.359,625.738Zm52.45-1.686c-2.189,1.244-6.39,1.349-10.191,1.686C229.451,622.534,237.5,624.662,240.809,624.052Zm-26.224,1.686h-1.456c-1.321-1.855-8.331,1.306-8.745-2.529C207.337,624.642,223.153,622.345,214.585,625.738Zm1.589-30.27c-2.425,1.413-8.569.674-13.113.845a3.086,3.086,0,0,1-1.466,2.508v3.372c-3.438-.253-2.716-2.908-7.289-2.508V598H201.6c.743-4.067-13.072.253-14.579-2.529C197.611,595.426,210.31,594.625,216.174,595.468Zm-33.513-45.32h5.822c1.126.191,2.871.021,2.912.843-3.592-.127-7.02-.127-8.734.845h-4.378C178.3,550.421,182.33,551.348,182.661,550.149Zm5.824-9.235c1.839-.358,2.974-1.094,2.912-2.508h1.456c.631,1.581,4.161,1.518,2.922,4.2a15.286,15.286,0,0,1-7.289-.864Q188.484,541.325,188.484,540.914Zm-36.56-224.955c2.572.21,3.314,1.454,2.912,3.372-4.645-.506-4.491,1.559-7.279,0C147.992,317.624,151.492,317.666,151.924,315.959ZM143.191,337.8c4.346-.062,7.381,2.466,4.366,4.2C142.438,341.613,141.385,340.22,143.191,337.8ZM128.6,326.9a3.17,3.17,0,0,1-1.446-2.531,12.894,12.894,0,0,1,5.822-.843C133.394,325.718,132.464,327.131,128.6,326.9Zm-7.268-62.141c4.563-.4,3.84,2.276,7.268,2.508.246,1.834-5.163.4-7.268.843Zm2.912,69.687a15.378,15.378,0,0,0,7.289.822c-1.651,2.149-6.463,2.443-11.667,2.529C120.3,336.089,123.812,336.153,124.246,334.445Zm5.822,23.5c-1.012,1.329-4.79-2.782-7.268-3.351.371-2.951,5.421,2.087,5.8-.864C132.6,354.512,126.042,356.683,130.068,357.948ZM95.11,300.866c3.18-.148,3.117-2.13,2.9-4.2a8.437,8.437,0,0,1,.836.169,9.855,9.855,0,0,0-3.623-2.741v-3.35c2.756-.191,3.211.948,5.833.843a10.633,10.633,0,0,0,4.368.843c-1.786,2.488,1.5,5.313-2.922,7.546h-.02a11.573,11.573,0,0,0-1.55,4.236c1.808,2.655,4.233.148,7.279,2.508-.342,3.732-3.191,6.008-8.745,6.724-3.107-3.162-3.18-5.671,0-9.233.1-2.846-7.475-1.285-7.289-4.2C93.881,299.875,94.78,300.192,95.11,300.866Zm8.734,26.033c-2.613.084-3.076-1.034-5.833-.845-1.249-2.677,2.3-2.593,2.922-4.215C106.2,321.038,102.957,325.15,103.844,326.9Zm-5.833-10.1c4.553-.358,4.657,1.814,4.368,4.2C97.835,321.377,97.733,319.2,98.011,316.8ZM79.066,362.143c-.184-1.517,1.8-1.771,1.466-3.352,3.881,1.392,1.167,3.247,8.735.822C91.518,363.724,82.019,363.6,79.066,362.143Zm5.843,25.168c4.884-.569,5.306,1.413,5.812,3.374C86.17,391.064,84.229,389.947,84.909,387.311Zm5.814-40.282c4.368-1.413,9.767-2.213,8.745-6.724-.412-1.75-3.883,1.221-5.824-.845,6.69-2.8,8.178-7.335,8.735-11.741,1.507.822,2.953,1.665,4.378,2.509-.35-2.741,5.368-.907,11.655-.823-1.28-1.5-6.474-1.39-2.912-3.352a5.073,5.073,0,0,1,4.368,4.175c-3.84,2.107-7.817.378-13.111,2.529.352,3.71,2.984,6.113,2.912,10.076H102.38c3.51,2.235,11.5-.043,11.667-2.529,3.035,1.011-.661,5.165-5.833,4.215,4.47,2.634,3.83,6.282,13.123,7.546-.33,3.5,2.374,3.963,0,6.724-2.478.3-2.746-.652-2.922-1.686-3.707.084-3.438,3.14-1.456,4.2,7.051-1.538,7.391-.043,11.647,1.686,4.935-.337-3.863-3.267,2.932-2.529H135.9c.135,2.3-2.425,1.688,0,3.372a7.175,7.175,0,0,0,2.922-2.529c3.633.59-2.716,2.235-1.466,4.193-6.082.886-6.422.232-13.111,0,.186-1.5-1.786-1.77-1.446-3.351-4.583,4.026-18.9,1.16-17.489,6.724.258-2.887-5.038-4.806-8.755-7.567-1.28-2.7,4.8-1.16,4.378-3.352C93.561,354.765,95.337,350.866,90.723,347.029Zm46.634,47.007c-1.858-.633-4.006-1.117-4.336-2.636a7.95,7.95,0,0,1-2.828.084c.434-1.96,3.664-3.921-2.912-3.35.02-1.117,2.55-.781,2.912-1.688h1.444c1.476,1.119,2.416,2.531,4.387,3.352v.843a6.933,6.933,0,0,0-1.032.232c1.992.358,3.293,1.117,6.742.654C142.313,393.53,135.1,391.064,137.357,394.037Zm-2.912-8.39H128.6v-2.529c3.655.127,4.585,1.622,5.843-.845C132.587,380.692,137,382.843,134.446,385.646Zm-33.513-2.529v-5.86c-2.623-.105-3.076,1.034-5.824.843,1.384-1.727,2.974-3.331,4.358-5.038,4.088.716,3.1,4.363,5.845,5.86,1.693-1.244,4.2-2.044,4.356-4.2,3.51.781-.887,6.113,5.833,5.038-.6,2.825-6.928.485-10.19,0C98.95,379.933,107.035,383.748,100.932,383.117Zm-1.466-12.585c1.011-1.328,13.2-2.066,10.2,1.688C104.938,370.68,105.476,371.334,99.466,370.532ZM89.39,457.8c-3.531-2.383,6.7-1.37,10.209-.843C97.938,459.971,89.988,455.419,89.39,457.8Zm11.542-57.039c.991-3.794.774-8.03-5.824-6.724-1.135-1.877,6.711-2.678,1.446-4.174,7.723-1.665,14.268,4.616,17.489,8.389C106.136,398.588,106.291,398.652,100.932,400.761Zm14.569-5.038c-3.707.633-2.447-5.733-5.833-2.508-2.458-2.276-1.88-9.633-1.456-10.941,2.818.358.123,3.858,5.833,2.529-6.629,2,1.653,4.3,4.368,5.881,1.8-.38,3-1.075,2.922-2.529-.619-1.624-4.172,1.369-2.922-2.509,5.4-.59,2.509,3.584,5.833,4.216.868,1.9-10.088,3.035-8.745,0-2.365-.253-2.509.779-4.378.822C112.032,392.687,117.473,392.055,115.5,395.722Zm10.19,282.06h-5.824v-.843c-.434-2.213,3.035-2.171,5.824-2.529Zm7.289,0c-5.843.127-3.85-2.171-2.912-4.2C134.962,672.723,132.341,676.18,132.98,677.782Zm20.4-127.592c-1.837-2.973-7.164-1.075-11.645-4.193-.279-.738.557-.8,1.456-.864h2.922c-.289.7-1.487.843-1.476,1.686,4.141.148,2.839-2.825,8.744-1.686Zm20.4,74.705c-6.422-.781-16.84.759-16.023-4.215C163,623.735,172.182,619.52,173.782,624.9Zm-2.912-79.763c-13.844-.506-31.468-1.392-43.713-1.665h-1.466c-2.128-3.183,6.525-.169,4.376-3.372C141.158,545.005,159.184,540.178,170.871,545.132Zm-21.858-181.3c-5.255-1.538-4.284.128-8.744.822,1.487-1.1,1.425-3.1,2.922-4.2.877.485,6.906,1.962,7.278,0C153.918,360.687,148.8,362.712,149.013,363.829Zm7.279-13.448c-4.17.105-6.9,1.053-5.824,4.215h-4.358c-.475-2.8,3.221-3.183,4.358-5.059-.454-1.117-3.655-.7-5.833-.822a3.811,3.811,0,0,0,1.476-4.2c3.965-.611,2.912,1.665,5.812,1.665,1.188-.148,1.456-.843,2.912-.843-.444-3.309-5.048.948-4.368-2.509a12.953,12.953,0,0,1,5.824-.843C157.285,346.081,153.732,347.578,156.292,350.381Zm0-80.585a3.4,3.4,0,0,0,1.466-3.352c5.865-.105,8.321,3.541,10.2-.843,3.3.611,3.191,3.2,7.279,3.35C168.8,273.042,161.424,269.606,156.292,269.8Zm77.248,26.032c-1.921-.864-5.38-.845-7.289-1.688C227.851,291.991,234.634,292.182,233.54,295.828Zm67.015,261.064c-2.818,2.636-7.5-8.178,0-6.7A5.886,5.886,0,0,0,300.555,556.892Zm30.6,108.306c-.588,1.053-1.88,1.707-4.368,1.666h-1.466c-.062-1.075-1.858-1.16-1.446-2.509C327.988,663.659,327.658,665.535,331.158,665.2Zm-10.2,16.779c-3.252-2.213,2.448-3.837,7.289-2.509C332.345,680.817,320.348,679.869,320.957,681.977Zm16.033-4.2c-3.035-.485-9.58,1.034-10.2-.843.907-1.982,6.639-1.119,11.645-2.529A3.441,3.441,0,0,0,336.99,677.782Zm1.446-49.536c-5.832-1.075,4.336-3.983,0-4.193,3.346-3.436,1.952,2.677,4.378,2.508C342.225,629.406,337.177,624.327,338.436,628.246Zm51.127-97.406c-5.763-.907-.661-3.162,1.466-4.2h1.466C393.569,529.217,388.488,528.246,389.563,530.839Zm5.709,19.351c2.912,3.288,20.391-.907,16.034,5.017-3.387-3.773-8.714-1.16-16.034-.822C393.4,553.267,393.4,551.286,395.272,550.19Zm23.437-85.666c-3.995,1.2-1.683,2.108,0,4.2-1.849,1.16-7.135.358-7.279,2.508,2.416,2.277,2.416,10.329,0,12.607-1.145-5.418-.33-6.956-4.376-10.919v-1.688h1.466c-.176-5.186,1.8-9.3,1.446-19.308-3.18-.971-9.417-.169-10.2-2.509,10.707.212,5.266-6.008,10.2-7.546.33.633.051,1.645,1.466,1.665v21C415.043,465.62,417.48,462.059,418.709,464.524Zm-5.833-15.956c3.449-2.044,2.726,1.265,7.3.843-1.724,1.791-6.226,2-4.368,5.86h-1.466c-.082-.506-.217-.969-1.466-.822C413.206,451.372,414.888,451.224,412.875,448.568Zm5.833,70.509c-3.717-.084-2.89-2.8-2.9-5.038C421.072,513.258,417.831,517.35,418.709,519.077Zm0-12.584c-8.29-2.171,1.6-7.146,1.466-10.076C424.644,499.326,415.725,501.646,418.709,506.493Zm-10.191-16.8c10.862,1.244,2.374,8.389,5.824,15.957C407.341,501.391,410.954,496.228,408.517,489.693Zm5.824,36.108c-2.994-.232-2.912-2.235-4.378-3.352v-.843c2.054-.21,1.673-1.834,2.91-2.529C414.775,520.594,413.6,522.176,414.341,525.8Zm-8.859,66.358c-5,.948-4.315-6.113,1.456-4.2C406.123,589.167,408.633,592.286,405.482,592.159Zm3.035-16.843c-.164,1.034-.434,2-2.912,1.686v-.822c4.688-2.213-4.212-7.314,5.822-6.745C408.292,570.173,408.044,572.555,408.517,575.316Zm2.912-7.546c-4.253-1.727-4.294-5.922-5.822-9.232,6.113-.169,11.739-.043,10.2,4.194h-1.466C413.422,558.623,410.161,565.3,411.429,567.77Zm2.912,0v-4.193c4.976-.611,2.4,3.1,5.833,3.351-4.264.907-5.12,3.773-4.368,7.567C411.822,572.386,414.589,571.269,414.341,567.77ZM428.92,649.2c-6.607-.274.62-5.291-2.912-5.881v-1.686C436.436,645.425,428.259,644.034,428.92,649.2Zm4.356-13.428V638.3c-2.6.084-3.406-.843-2.912-2.529-2.148.168-1.331,2.023-1.444,3.352-1.466,0-1.734-.674-2.912-.822h-1.466c-1.714.948-5.163.927-8.735.822.012-1.665,3.975-1.055,2.9-3.352a13.353,13.353,0,0,1,5.833.822c3.16.148.661-2.951,1.466-4.174v-.845c4.327-2.3-2.435-5.838,1.446-8.389,2.726,4.448,3.387-1.688,2.91-1.688,1.724,0,4.3,4.511,1.466,9.233-3.406-.21-.846-3.689,0-4.2-6.029-.126-1.528,5.84-2.912,8.39,2.148-.148,1.321-2.024,1.444-3.352C433.555,631.7,433.5,633.685,433.276,635.772Zm-1.446-19.309v3.352C424.315,620.573,433.235,609.845,431.83,616.462Zm-1.466-20.151v-.845c-.454-3.056,3.934-3.331,7.289-4.193C435.052,592.854,433.711,595.173,430.364,596.311Zm-14.681-41.105c.289-1.117,6.05-1.538,0-1.665,8-3.372,26.1.779,34.969,0C443.064,558.264,425.121,554.533,415.684,555.206Zm43.838-36.129v.843c-5.783,1.329-13.072-2.867-13.133-7.546a4.011,4.011,0,0,0,2.931-1.686h2.912c3.158,1.812,8.9,2.151,11.647,4.193C464.581,517.518,459.955,517.117,459.521,519.077Zm13.111-120.024c1.012.907-2.953,6.093-8.755,5.86C461.3,406.052,470.981,400.95,472.632,399.053Zm-8.753,8.389c-5.038,1.854-9.777,3.857-13.113,6.724a3.874,3.874,0,0,0-2.912,1.665c-1.632-.105-2.271,1.2-2.91,0C451.509,413.724,454.771,405.293,463.879,407.442Zm-33.628-5.017c-5.978-.506-2.922-2.319-2.912-5.017C430.014,399.178,432.357,399.834,430.251,402.425Zm-4.243-89.84c1.694.127,1.571,1.306,1.446,2.508v.843c.454,1.665-.227,8.727-1.446,4.2Zm1.446,36.067c-2.085-1.012-2.757-2.866-2.912-5.015C430.8,343.34,428.486,346.692,427.454,348.653Zm-1.446,1.707c4.563.569,1.9,2.235,1.446,4.2h-1.446C422.084,353.185,423.84,351.9,426.008,350.36ZM404.142,266.4c5.575-.674,1.714,4.047,7.288,3.372h2.912c-4.935,3.71-.465,5.5,1.466,9.233-2.075-.084-4.141-.148-4.378.822-3.3-.886-.557-5.268-1.466-7.546C406.929,273.674,399.991,270.976,404.142,266.4Zm8.734,82.251c-2.973-.759-.938-12.056-2.91-16.779C417.81,335.078,412.121,343.172,412.875,348.653Zm-1.446,29.405v-9.233C413.4,359.4,414.382,382.105,411.429,378.058Zm-5.822,39.46c4.709-6.724,6.629,8.3,1.446,2.508v-.843h1.466C408.353,418.172,408.085,417.2,405.607,417.518Zm1.446-68a3.689,3.689,0,0,1-2.912-3.372v-2.508c1.858-.043,2.023-1.076,4.378-.845C406.268,345.764,409.3,346.544,407.053,349.517Zm5.822-29.384c-2.787-.337-1.135-3.247-5.822-2.508C407.114,314.82,414.8,315.769,412.875,320.133Zm-8.734-44.5a8.165,8.165,0,0,1,4.378,5.038C403.294,281.177,404.079,278.185,404.142,275.635Zm0,46.184V319.29c2.683-.8.9,4.806,2.912,1.686,2.435,2.256-2.066,16.232-4.356,5.881C404.368,325.866,404.327,323.884,404.142,321.819Zm4.376,41.968v.845c-1.259,1.791.3,5.8-1.466,9.232-4.254-.759-.424-3.1-2.912-3.35v-.843c2.726-3.1,2.271-10.561-1.444-12.605C411.388,355.4,403.925,363.07,408.517,363.787Zm-2.91,74.706c1.663-2.634-2.291-2.024-2.91-3.35,4.841.337,8.114-4.511,2.91-5.038v-.845c1.693-.127,1.219-1.538,1.446-2.529h5.822c-5.6,2.529-2.394,4.89-4.356,9.255,1.477-.549,1.507-1.939,4.356-1.666v-6.724c1.188.57,4.006,1.287,4.378,0h1.456c2.3-.084,1.145-2.149,4.377-1.686-.352,1.2-2.406,1.412-2.912,2.508,8.187-.886,12.13-8.663,18.935-7.567-5.38,2.425-15.219,6.114-13.1,10.1-1.868-.043-2.024-1.075-4.378-.843-4.893,3.245-1.941,6.006-8.755,8.389v-.843c1.145-.191,1.714-.7,1.466-1.665-6.545,4.174-7.393,6.428-17.49,8.389.846,3.142,1.094,2.529,1.466,6.724-6.381-.633,1.167,1.665-2.912,1.665-.164-1.581-4.821-.57-4.378-2.508C398.029,446.228,394.085,439.9,405.607,438.492Zm-14.7-110.772c1.466,0,1.735.674,2.912.845v4.193C385.207,335.646,383.327,329.028,390.906,327.72Zm-14.569-75.547H380.7c1.632,4.322,2.912,9.613,1.456,13.428C373.044,265.263,377.255,257.232,376.337,252.173Zm14.692,193.886c-1.992,6.323-8.941,6.956-17.489,12.584C373.415,454.364,387.167,450.844,391.029,446.059Zm-27.813-24.324c3.633.127.422,2.846,0,3.374.95.843,3.365.864,2.922,2.508-4.512-.191-4.553-2.973-5.833-5.038C362.006,422.725,362.884,422.387,363.216,421.735Zm.123,40.282c1.186-.169,1.456-.864,2.912-.864,2.994.738,2.912-4.279,4.378-1.665-7.465,5.755-17.283,10.2-26.224,15.114C348.162,468.929,358.487,467.033,363.339,462.016ZM322.413,203.481c7.9.4-3.252,6.809,4.378,6.7C319.853,211.87,321.463,206.452,322.413,203.481Zm-2.912.843c1.28,3.245-6.359,1.37-4.378,5.038C310.158,207.992,312.542,204.534,319.5,204.324ZM307.834,389v-4.2c3.469.527,6.793,1.117,7.289,3.352C311.016,387.482,311.366,389.335,307.834,389Zm4.378-52.867c.485-1.5,3.779-4.806-2.912-5.059,1.724-1.242,1.259-3.753,5.824-3.352C315.4,329.429,318.933,334.994,312.212,336.131ZM319.5,436.847c-3.7-.064-3.438-3.12-1.446-4.2,2.333-.232,2.5.8,4.358.843C323.476,435.773,319.523,435.183,319.5,436.847Zm2.912-15.936a3.624,3.624,0,0,1,2.912,3.352c-2.777-1.581-2.623.5-7.268,0C316.765,421.565,321.823,422.513,322.413,420.911Zm-4.358-177.127c-2.044,1.139-7.205,1.812-8.755.822C310.158,241.845,314.8,243.4,318.055,243.784Zm-14.577,7.546a15.235,15.235,0,0,1,7.268.843c-2.292,1.244-5.048,4.322,1.466,4.2-5.267,3.857-5.142-1.812-11.657-1.665C301.186,253.376,305.151,253.966,303.478,251.33ZM304.923,405.8c3.635.127.434,2.846,0,3.352-2.128-.738-4.6-1.244-4.368-3.352C304.407,404.786,304.315,409.846,304.923,405.8ZM194.195,154.788c-.3,2.4-.2,4.6,4.368,4.215-2.044,2.066-5.028,1.476-8.755.822.207-2.066.227-4.047-1.444-5.038a10.445,10.445,0,0,1-4.378.843c-2.675.991-1.012,4.448-7.289,3.372a9.935,9.935,0,0,0,1.466-9.253c2.767.38,3.655,1.812,7.288,1.688,4.811-.486-1.837-5.439,1.456-5.038,4.141.4,4.182,3.2,5.833,5.038-1.2.716-4.006.5-4.378,1.665,3.7.822,9.787.485,13.113-.845C201.679,154.62,197.91,154.682,194.195,154.788Zm8.734,71.352c4.8-2.677,11.925-2.34,17.479-1.686C215.049,226.879,210.206,224.6,202.928,226.139Zm52.46,138.512c-1.829-.21-1.466-1.665,0-1.665-.805-3.247-5.638,1.075-4.378-3.372-.352-.907-2.89-.547-2.912-1.665a9.439,9.439,0,0,1-4.378,7.546c-2.167-1.812-1.9-5.058-8.734-4.193-3.139-1.055,8.673-.527,7.288-3.352.465-2.235-8.157.781-5.824-2.529,9.685,1.919,1.012-1.5,8.735-2.508-3.883,3.753,2.128,3.985,4.378,4.2,2-.843-.629-1.392,2.912-2.508,3.406.21.846,3.668,0,4.194.27.674,1.466.822,1.446,1.665,1.8-.358,3.014-1.075,2.932-2.508C261.478,359.867,254.962,362.375,255.388,364.651ZM251.009,354.6c-3.84.232-3.758-1.771-4.356-3.372,2.6.105,3.056-1.034,5.822-.843C253.074,352.406,249.811,352.215,251.009,354.6Zm-4.356-85.646c-1.591-.189-.993-1.665-2.933-1.686.858-2.024,5.513-1.855,8.755-2.508C253.569,267.92,246.911,266.592,246.653,268.952Zm14.556,0a53.2,53.2,0,0,0-13.111.845C250.143,268.089,261.458,264.42,261.208,268.952Zm-1.444,18.466H258.3c.557-1.117-9.179-3.352-1.446-5.018H258.3c.319.654,1.229.971,2.91.823C260.424,284.446,262.924,287.564,259.764,287.418Zm5.824,112.5c2.128.716,4.626,1.244,4.378,3.35a10.735,10.735,0,0,1-4.378.864C263.719,403.015,263.719,401.014,265.587,399.918Zm0-106.618c.827-2.046,1.251-4.322,5.824-4.174v.822C269.7,291.191,270.151,293.677,265.587,293.3Zm11.645,130.12c-1.817-.21-1.466-1.665,0-1.686a12.285,12.285,0,0,0-4.356-1.665c.35-1.476,2.5-1.919,5.822-1.688-.4-1.918.352-3.14,2.912-3.351-4.79-1.855-8.569,2.108-13.111,0,6.5-3.985,6.029-4.953,16.023-5.881.784,1.223-5.658,2.044-1.446,2.529.041.822,1.776.633,2.912.845,1.28,2.951-3.737,4.322,1.456,5.017C284.088,419.543,277.305,419.543,277.233,423.419ZM281.61,405.8c.289-.674,1.466-.843,1.466-1.665-1.311-1.5-5.925-1.075-4.378-4.215,1.941.843,2.861,2.276,5.824,2.508C284.2,403.9,285.988,406.64,281.61,405.8Zm8.757,22.66c-2.519,1.456-9.015.928-10.2-.843.176-5.079,10.635.948,7.279-5.881C297.7,421.544,290.51,425.486,290.367,428.457Zm2.908-94.012c.156,1.559,4.811.569,4.378,2.508v.843c.578,3.015-1.208,2.593-4.378,8.39-4.231-.633-8.382-1.328-10.2-3.352-3.664-3.393,5.163-5.671,7.289-8.389ZM278.7,189.21c1.239.146,1.374-.339,1.466-.845,4.823.822-1.632,1.665-1.466,2.529-4.253-.759-.412-3.1-2.91-3.372C276.406,185.205,280.371,187.481,278.7,189.21Zm0,6.7c1.9-.991,9.251-.38,8.745,2.529H281.61c-.536,1.433,1.137,1.581,2.912,1.688-.805,1.75-2.261,1.77-4.358.843-1.27,5.206,6.525,5.186,5.824,10.076-1.415-.021-1.135-1.034-1.466-1.688-9.695,2.741-7.557-11.719-13.111-17.643C276.613,191.528,279.04,192.941,278.7,195.914Zm0,17.642c3.109.781,2,6.093-2.91,5.038C275.085,215.96,280.258,216.7,278.7,213.556Zm4.378,46.164c.578,1.454-2.169,2.149,0,2.529.619-2.319,4.585-.043,2.912,1.665-2.767.212-3.221-.948-5.824-.822-4.543,7.736,2.695,9.085,0,18.465-2.9,0-1.858,2.276-5.843,1.666v.843h-1.444c-8.765.864-10.656-2.256-14.579-4.2v-1.686c-3.914-3.12-3.582-.654-7.289-1.666,9.953-4.7,14.362-9.105,14.579-15.957,3.811,1.2,6.082,5.1,4.378,7.546C279.339,266.485,272.99,260.964,283.076,259.72Zm-17.489-73.039c1.259.7.877,2.317,2.912,2.529a.754.754,0,0,1-1.444,0c-3.924-.59-2.83,1.727-4.378,2.508-1.29-2.614-4.47-4.131-5.824-6.7C259.434,185.752,260.548,187.355,265.587,186.681ZM258.3,167.371c2.312,3.732-5.886,6.788,0,11.764h-7.289c.639-4.828,3.1-3.985,1.466-9.233C255.675,171.82,258.3,169.692,258.3,167.371Zm-2.91-6.724c1.982.274,1.218,2.108,1.466,3.372H251.01C249.729,161.342,254.788,162.292,255.388,160.647Zm-7.291,1.707c-.619,1.6-.516,3.605-4.378,3.351C241.1,164.272,244.175,162.4,248.1,162.355Zm-4.378-69.687c-3.654,1.5-1.012,1.392-2.91,3.374-3.6,1.1-6.05-2.466-7.268,0-2.169-.716-2.116-2.718-2.922-4.216C237.917,92.942,237.763,91.34,243.719,92.667Zm-10.18,74.7c3.148,2.381,10.881,2.13,17.469,2.529-2.849,5.628-12.183-.864-18.935,1.665,4.821,4.511,20.236,5.69,23.314,13.448-15.548-4.2-24.44-12.226-40.8-15.957,1.3-2.889-.858-3.646,5.824-4.2-6.091,3.415,6.029,3.625,10.211,5.881C233.19,170.535,233.932,169.31,233.54,167.371Zm-13.133-11.741c-5.163-1.918-7.33-.652-16.025-.843-.352-4.131,14.1.294,16.025-2.529C223.588,150.277,219.684,153.987,220.407,155.631Z" transform="translate(0 0)"/><path class="a" d="M232.738,149.982c3.934.232,2.613,3.521,5.824,4.2,3.355-2-1.227-6.535-7.279-5.9,3.592-3.816-5.638-6.555-5.824-10.9-1.27-2.466-2.189,1.939-5.843.843,7.061-1.939-3.965-3.584-1.444-6.724a4.28,4.28,0,0,0-2.715.527c-.467.677-.953,1.359-1.4,2.026-.084.276-.164.554-.268.818-.113,0-.177-.02-.284-.02a147.081,147.081,0,0,0-12.791,23.827c7.255-3.8,36.427,3.211,29.108-6.183h-7.279c-2.146-3.2,6.505-.169,4.358-3.352C228.846,149.013,231.3,152.534,232.738,149.982Zm-16.023-2.529H224C225.418,150.846,215.279,150.846,216.715,147.453Z" transform="translate(129.021 84.569)"/><path class="a" d="M182.523,343.64c3.6.015,7.053.248,9.064,1.614,5.421-.845,3.82-1.791,10.2-.845.246-1.244-.516-3.1,1.466-3.351,2.452.675,4.815,1.236,7.136,1.725-26.244-20.893-49.916-26.794-49.916-26.794C164.3,319.644,173.153,329.407,182.523,343.64Z" transform="translate(103.137 203.25)"/><path class="a" d="M18.2,242.609c3.426.56,3.871-.577,5.912-.792-.532-2.973-1-5.8-1.4-8.44-.048,0-.084,0-.133,0v-.9c-1.965-13.269-2.355-21.83-2.355-21.83-3.25,7.1-6.364,14.736-9.284,22.754C14.826,236.77,16.182,237.438,18.2,242.609Z" transform="translate(6.953 135.49)"/><path class="a" d="M255.493,131.363a2.394,2.394,0,0,1,.426-.59c.077-1.323.158-2.634.251-3.919-5.359-.758-11.082-.4-13.8,1.157,5.585-.127,10.623.043,13.123,1.688C254.027,129.7,253.656,131.153,255.493,131.363Z" transform="translate(155.813 81.349)"/></g></svg>